<svg width="41" height="41" viewBox="0 0 41 41" fill="none" xmlns="http://www.w3.org/2000/svg">
<circle cx="20.6454" cy="20.7699" r="20" fill="#361900"/>
<path d="M28.839 23.2109C30.6089 23.2109 32.0435 24.6201 32.0435 26.3582V27.6243C32.0435 29.1542 31.3636 30.6077 30.1818 31.6043C27.9521 33.4842 24.7614 34.4031 20.6453 34.4031C16.53 34.4031 13.3413 33.4846 11.1154 31.605C9.93527 30.6085 9.25641 29.156 9.25641 27.6274V26.3582C9.25641 24.6201 10.6911 23.2109 12.461 23.2109H28.839ZM20.5008 6.43559L20.6458 6.42603C21.1865 6.42603 21.6335 6.8207 21.7043 7.33278L21.7139 7.47513L21.7128 8.52284L26.6984 8.52354C28.4681 8.52354 29.9029 9.93265 29.9029 11.6709V17.972C29.9029 19.7101 28.4681 21.1193 26.6984 21.1193H14.5923C12.8225 21.1193 11.3877 19.7101 11.3877 17.972V11.6709C11.3877 9.93265 12.8225 8.52354 14.5923 8.52354L19.5764 8.52284L19.5776 7.47513C19.5776 6.944 19.9795 6.50507 20.5008 6.43559ZM17.4397 12.72C16.4571 12.72 15.6605 13.5024 15.6605 14.4675C15.6605 15.4326 16.4571 16.215 17.4397 16.215C18.4224 16.215 19.2191 15.4326 19.2191 14.4675C19.2191 13.5024 18.4224 12.72 17.4397 12.72ZM23.8385 12.72C22.8558 12.72 22.0592 13.5024 22.0592 14.4675C22.0592 15.4326 22.8558 16.215 23.8385 16.215C24.8212 16.215 25.6178 15.4326 25.6178 14.4675C25.6178 13.5024 24.8212 12.72 23.8385 12.72Z" fill="#F0EDEA"/>
</svg>
