<svg width="41" height="47" viewBox="0 0 41 47" fill="none" xmlns="http://www.w3.org/2000/svg">
<path d="M38.7589 2.25831L30.7308 0.0551858C29.8586 -0.183486 28.9631 0.358116 28.608 1.33116L24.9028 11.6124C24.5786 12.512 24.7947 13.5677 25.4354 14.1827L30.1133 18.7359C27.3343 25.7767 22.4789 31.6333 16.4347 35.0023L12.606 29.4394C12.081 28.6775 11.201 28.4204 10.4446 28.806L1.79896 33.2122C0.972999 33.6437 0.517561 34.7085 0.718262 35.7458L2.57089 45.2927C2.76387 46.2841 3.50492 47.0001 4.3772 47.0001C24.1463 47.0001 40.1947 27.9523 40.1947 4.40636C40.1947 3.37823 39.6003 2.4878 38.7589 2.25831Z" fill="#B47947"/>
</svg>
