<svg width="38" height="42" viewBox="0 0 38 42" fill="none" xmlns="http://www.w3.org/2000/svg">
<path d="M4.50529 20.5208V28.3542C4.50529 29.9796 5.81737 31.2917 7.44279 31.2917C9.06821 31.2917 10.3803 29.9796 10.3803 28.3542V20.5208C10.3803 18.8954 9.06821 17.5833 7.44279 17.5833C5.81737 17.5833 4.50529 18.8954 4.50529 20.5208ZM16.2553 20.5208V28.3542C16.2553 29.9796 17.5674 31.2917 19.1928 31.2917C20.8182 31.2917 22.1303 29.9796 22.1303 28.3542V20.5208C22.1303 18.8954 20.8182 17.5833 19.1928 17.5833C17.5674 17.5833 16.2553 18.8954 16.2553 20.5208ZM3.52612 41.0833H34.8595C36.4849 41.0833 37.797 39.7713 37.797 38.1458C37.797 36.5204 36.4849 35.2083 34.8595 35.2083H3.52612C1.90071 35.2083 0.588623 36.5204 0.588623 38.1458C0.588623 39.7713 1.90071 41.0833 3.52612 41.0833ZM28.0053 20.5208V28.3542C28.0053 29.9796 29.3174 31.2917 30.9428 31.2917C32.5682 31.2917 33.8803 29.9796 33.8803 28.3542V20.5208C33.8803 18.8954 32.5682 17.5833 30.9428 17.5833C29.3174 17.5833 28.0053 18.8954 28.0053 20.5208ZM17.3715 0.917928L1.90071 9.0646C1.09779 9.47585 0.588623 10.3179 0.588623 11.2188C0.588623 12.57 1.68529 13.6667 3.03654 13.6667H35.3686C36.7003 13.6667 37.797 12.57 37.797 11.2188C37.797 10.3179 37.2878 9.47585 36.4849 9.0646L21.014 0.917928C19.8782 0.310845 18.5074 0.310845 17.3715 0.917928V0.917928Z" fill="#B47947"/>
</svg>
