<svg width="45" height="40" viewBox="0 0 45 40" fill="none" xmlns="http://www.w3.org/2000/svg">
<path d="M20 23.125H19.9992C19.9992 22.493 20.0516 22.784 16.677 16.0348C15.9875 14.6562 14.0133 14.6535 13.3227 16.0348C9.91953 22.8418 10.0008 22.5129 10.0008 23.125H10C10 24.8508 12.2387 26.25 15 26.25C17.7613 26.25 20 24.8508 20 23.125ZM15 16.875L17.8125 22.5H12.1875L15 16.875ZM34.9992 23.125C34.9992 22.493 35.0516 22.784 31.677 16.0348C30.9875 14.6562 29.0133 14.6535 28.3227 16.0348C24.9195 22.8418 25.0008 22.5129 25.0008 23.125H25C25 24.8508 27.2387 26.25 30 26.25C32.7613 26.25 35 24.8508 35 23.125H34.9992ZM27.1875 22.5L30 16.875L32.8125 22.5H27.1875ZM30.625 27.5H23.75V15.9863C24.6684 15.5844 25.3578 14.7566 25.5621 13.75H30.625C30.9703 13.75 31.25 13.4703 31.25 13.125V11.875C31.25 11.5297 30.9703 11.25 30.625 11.25H24.9859C24.4156 10.4953 23.5191 10 22.5 10C21.4809 10 20.5844 10.4953 20.0141 11.25H14.375C14.0297 11.25 13.75 11.5297 13.75 11.875V13.125C13.75 13.4703 14.0297 13.75 14.375 13.75H19.4379C19.6422 14.7562 20.3313 15.5844 21.25 15.9863V27.5H14.375C14.0297 27.5 13.75 27.7797 13.75 28.125V29.375C13.75 29.7203 14.0297 30 14.375 30H30.625C30.9703 30 31.25 29.7203 31.25 29.375V28.125C31.25 27.7797 30.9703 27.5 30.625 27.5Z" fill="#B47947"/>
</svg>
