<svg width="69" height="44" viewBox="0 0 69 44" fill="none" xmlns="http://www.w3.org/2000/svg">
<path d="M28.5727 0.000591398C28.7846 0.00214305 28.7846 0.00214305 29.0008 0.00372604C31.5089 0.05411 33.6796 1.02315 35.4538 2.67289C38.0798 5.52968 38.1289 9.18765 37.832 12.7578C37.5494 15.0049 36.4518 16.9048 34.5999 18.3824C33.9097 18.8781 33.9097 18.8781 33.5717 18.8781C33.5717 19.5774 33.5717 20.2767 33.5717 20.9972C33.8767 20.9869 34.1817 20.9766 34.4959 20.966C35.732 20.9524 36.7467 21.2197 37.6587 22.0173C39.0539 23.4883 38.991 25.1331 38.9489 26.9807C39.2594 26.9807 39.57 26.9807 39.8899 26.9807C39.8871 26.8361 39.8843 26.6916 39.8814 26.5427C39.8716 26.0014 39.8654 25.4601 39.8604 24.9188C39.8577 24.6855 39.854 24.4521 39.8493 24.2188C39.7917 21.2711 39.7917 21.2711 41.0053 20.0662C41.8745 19.3415 42.818 18.9821 43.9889 18.9511C44.1501 18.9463 44.3113 18.9415 44.4773 18.9365C44.7268 18.9307 44.7268 18.9307 44.9814 18.9248C45.1509 18.92 45.3204 18.9152 45.495 18.9102C45.9119 18.8985 46.3288 18.8878 46.7458 18.8781C46.6749 18.8077 46.604 18.7372 46.5309 18.6647C45.9632 18.0891 45.4751 17.5386 45.0906 16.8446C45.0476 16.773 45.0045 16.7015 44.9601 16.6277C44.2388 15.3597 44.1298 14.0158 44.1334 12.6064C44.1327 12.4388 44.132 12.2712 44.1312 12.1037C44.13 11.755 44.1303 11.4064 44.1317 11.0578C44.1332 10.6152 44.1305 10.1728 44.1266 9.73027C44.1241 9.38503 44.1242 9.03981 44.1249 8.69455C44.1249 8.45347 44.1227 8.21239 44.1204 7.97132C44.1352 6.20948 44.7927 4.44731 46.0989 3.13207C47.8061 1.66151 49.6387 1.01459 51.9313 1.01049C52.1735 1.00925 52.1735 1.00925 52.4207 1.00798C52.7609 1.00672 53.1011 1.00613 53.4413 1.00617C53.9626 1.00562 54.4838 1.00109 55.005 0.996373C55.3359 0.995641 55.6669 0.995146 55.9978 0.994912C56.2318 0.992225 56.2318 0.992225 56.4705 0.989483C56.6879 0.990634 56.6879 0.990634 56.9097 0.991808C57.037 0.991452 57.1644 0.991097 57.2955 0.990731C57.7345 1.07054 57.8934 1.23416 58.1723 1.55099C58.3088 1.89011 58.3228 2.20199 58.3198 2.56187C58.3194 2.65587 58.319 2.74987 58.3185 2.84672C58.3174 2.94362 58.3163 3.04051 58.3151 3.14035C58.3145 3.23917 58.3139 3.33799 58.3133 3.43981C58.3117 3.68279 58.3093 3.92577 58.3067 4.16875C58.3831 4.18707 58.4595 4.20539 58.5383 4.22426C59.6983 4.53673 60.3921 5.07857 60.9958 6.04588C61.5195 6.99233 61.554 8.00009 61.5556 9.04151C61.556 9.14898 61.5565 9.25646 61.5569 9.36719C61.5576 9.59422 61.5579 9.82125 61.5579 10.0483C61.5582 10.3888 61.5606 10.7293 61.5632 11.0698C61.5739 14.1079 61.1314 16.5706 58.8444 18.8781C58.9473 18.8792 59.0502 18.8804 59.1563 18.8816C59.6293 18.8884 60.1022 18.8988 60.5752 18.9092C60.737 18.911 60.8989 18.9128 61.0656 18.9146C62.4072 18.9484 63.5491 19.1672 64.5534 20.037C65.4601 20.9721 65.7428 21.9243 65.7265 23.1582C65.726 23.3227 65.726 23.3227 65.7254 23.4904C65.7239 23.8384 65.7205 24.1863 65.7171 24.5343C65.7157 24.7711 65.7145 25.0079 65.7134 25.2447C65.7105 25.8234 65.7058 26.402 65.7003 26.9807C65.7789 26.9781 65.8575 26.9754 65.9386 26.9728C66.296 26.9624 66.6534 26.9559 67.011 26.9495C67.1347 26.9453 67.2584 26.9411 67.3859 26.9368C68.2882 26.9247 68.2882 26.9247 68.7394 27.1754C68.9963 27.5925 68.9962 27.9036 68.998 28.383C68.9985 28.4697 68.999 28.5563 68.9996 28.6456C68.9999 28.8283 68.9989 29.0111 68.9967 29.1938C68.9938 29.4729 68.9967 29.7517 69.0001 30.0308C68.9997 30.2087 68.9991 30.3866 68.998 30.5645C68.9974 30.7258 68.9968 30.8872 68.9962 31.0534C68.9266 31.4683 68.9266 31.4683 68.7395 31.7415C68.1928 32.0929 67.6586 32.0199 67.011 31.998C66.8852 31.9958 66.7594 31.9935 66.6297 31.9912C66.3198 31.9854 66.0101 31.9772 65.7003 31.9669C65.7015 32.1094 65.7027 32.252 65.7039 32.3989C65.7148 33.7415 65.7229 35.0842 65.7282 36.4269C65.731 37.1172 65.7348 37.8075 65.7409 38.4978C65.7467 39.1638 65.7499 39.8297 65.7513 40.4958C65.7523 40.75 65.7542 41.0043 65.7571 41.2586C65.761 41.6143 65.7616 41.97 65.7613 42.3258C65.7633 42.4312 65.7652 42.5367 65.7672 42.6453C65.7618 43.3596 65.7618 43.3596 65.4444 43.7497C65.1396 43.9488 64.9937 44.0014 64.6249 43.9961C64.4918 43.998 64.4918 43.998 64.356 44C63.9582 43.902 63.8053 43.7316 63.5494 43.4352C63.4823 43.0577 63.4823 43.0577 63.4824 42.6066C63.4813 42.482 63.4813 42.482 63.4802 42.3548C63.4784 42.0764 63.4804 41.7981 63.4824 41.5197C63.4819 41.32 63.4812 41.1204 63.4802 40.9207C63.4786 40.4907 63.4787 40.0607 63.48 39.6307C63.4821 38.9501 63.4803 38.2696 63.4779 37.5891C63.4737 36.2664 63.4735 34.9437 63.4738 33.621C63.474 31.9396 63.4726 30.2583 63.4672 28.5769C63.4652 27.9011 63.4653 27.2253 63.4669 26.5494C63.4675 26.1278 63.4665 25.7063 63.4651 25.2847C63.4648 25.09 63.4651 24.8953 63.4662 24.7005C63.521 23.0097 63.521 23.0097 62.7008 21.566C61.7712 21.0647 60.903 21.0856 59.8543 21.0876C59.6854 21.087 59.5166 21.0864 59.3426 21.0857C58.881 21.084 58.4194 21.084 57.9578 21.0843C57.5716 21.0844 57.1854 21.0838 56.7993 21.0832C55.8878 21.0818 54.9763 21.0818 54.0648 21.0825C53.1263 21.0833 52.1878 21.0817 51.2494 21.0791C50.442 21.0769 49.6346 21.0761 48.8272 21.0765C48.3457 21.0768 47.8642 21.0764 47.3827 21.0747C46.8454 21.0728 46.3081 21.074 45.7707 21.0755C45.6124 21.0745 45.4542 21.0735 45.2911 21.0726C44.4259 21.0777 43.7638 21.1421 42.9818 21.4958C42.3979 22.0651 42.2928 22.4006 42.2911 23.1734C42.2907 23.257 42.2903 23.3405 42.2899 23.4267C42.2888 23.7081 42.2886 23.9895 42.2884 24.271C42.2878 24.4722 42.2871 24.6735 42.2864 24.8747C42.2848 25.3089 42.2837 25.7431 42.2829 26.1772C42.2814 26.864 42.2787 27.5507 42.2757 28.2375C42.2674 30.1905 42.2601 32.1436 42.2557 34.0968C42.2532 35.1749 42.2493 36.253 42.2438 37.3311C42.241 37.9016 42.2389 38.4722 42.2386 39.0428C42.2383 39.5798 42.2362 40.1169 42.2327 40.6539C42.2317 40.8507 42.2314 41.0476 42.2319 41.2444C42.2324 41.5138 42.2304 41.7831 42.2279 42.0524C42.2272 42.2783 42.2272 42.2783 42.2266 42.5086C42.1652 43.0199 42.0246 43.3525 41.7719 43.8091C41.3512 44.0042 40.8832 44.0207 40.4276 43.9338C40.2502 43.7692 40.0727 43.6047 39.8899 43.4352C39.8899 40.967 39.8899 38.4988 39.8899 35.9558C30.2191 35.9558 20.5483 35.9558 10.5844 35.9558C10.4957 36.1204 10.4069 36.2849 10.3155 36.4545C10.0299 36.6103 10.0299 36.6103 9.7778 36.7038C9.77899 36.787 9.78019 36.8702 9.78142 36.956C9.79331 37.8214 9.80142 38.6868 9.80734 39.5523C9.81004 39.8754 9.81371 40.1985 9.81836 40.5216C9.82488 40.9857 9.82794 41.4498 9.83031 41.914C9.83309 42.0586 9.83586 42.2033 9.83872 42.3524C9.83878 42.5545 9.83878 42.5545 9.83884 42.7606C9.84004 42.8791 9.84123 42.9976 9.84246 43.1196C9.75868 43.5285 9.58418 43.6758 9.24008 43.9338C8.97122 44 8.97122 44 8.70237 43.9961C8.56928 43.998 8.56928 43.998 8.43351 44C8.03763 43.9025 7.88291 43.7287 7.62693 43.4352C7.55865 43.0757 7.55865 43.0757 7.55736 42.6541C7.55566 42.496 7.55397 42.338 7.55222 42.1751C7.55318 42.003 7.55429 41.8309 7.55552 41.6588C7.55516 41.4819 7.55463 41.3049 7.55396 41.1279C7.55317 40.7574 7.55432 40.3869 7.55683 40.0164C7.5599 39.5418 7.55813 39.0675 7.55491 38.5929C7.55297 38.2276 7.55359 37.8623 7.55498 37.497C7.55534 37.3221 7.5549 37.1471 7.55365 36.9722C7.55228 36.7275 7.55473 36.4829 7.55736 36.2383C7.55778 36.0991 7.55821 35.96 7.55865 35.8167C7.64299 35.3727 7.77394 35.2214 8.16465 34.9586C8.3421 34.9586 8.51954 34.9586 8.70237 34.9586C8.71623 34.8403 8.73009 34.7221 8.74438 34.6002C8.8368 34.2107 8.8368 34.2107 9.24008 33.9614C9.64825 33.9377 10.044 33.9289 10.4522 33.9314C10.5777 33.9312 10.7032 33.9309 10.8325 33.9307C11.2548 33.9303 11.6771 33.9317 12.0994 33.9331C12.4014 33.9331 12.7035 33.9331 13.0055 33.9329C13.827 33.9329 14.6485 33.9343 15.4701 33.9361C16.328 33.9376 17.186 33.9378 18.0439 33.9381C19.4845 33.9388 20.925 33.9403 22.3655 33.9425C23.8494 33.9448 25.3332 33.9466 26.817 33.9477C26.9542 33.9478 26.9542 33.9478 27.0942 33.9479C27.5529 33.9482 28.0116 33.9485 28.4704 33.9488C32.2769 33.9514 36.0834 33.9558 39.8899 33.9614C39.8899 33.3032 39.8899 32.645 39.8899 31.9669C28.5333 31.9669 17.1768 31.9669 5.47607 31.9669C5.47607 35.7514 5.47607 39.5359 5.47607 43.4352C4.93835 43.9338 4.93835 43.9338 4.66949 44C4.58077 43.9987 4.49205 43.9974 4.40064 43.9961C4.31191 43.9974 4.22319 43.9987 4.13178 44C3.72167 43.899 3.58144 43.7501 3.3252 43.4352C3.24683 43.0655 3.25727 42.7014 3.26416 42.3258C3.26408 42.2139 3.264 42.1019 3.26392 41.9866C3.2643 41.617 3.26848 41.2474 3.27269 40.8778C3.2737 40.6214 3.27446 40.365 3.275 40.1085C3.27705 39.4339 3.28233 38.7593 3.28828 38.0847C3.29378 37.3962 3.29624 36.7077 3.29895 36.0191C3.30471 34.6684 3.31389 33.3176 3.3252 31.9669C3.24657 31.9695 3.16795 31.9721 3.08693 31.9748C2.72949 31.9852 2.37208 31.9916 2.01452 31.998C1.89079 32.0022 1.76707 32.0064 1.63959 32.0107C0.723964 32.023 0.723964 32.023 0.285995 31.7415C0.0143214 31.3447 0.0292479 31.0318 0.0274911 30.5645C0.0269766 30.4779 0.0264622 30.3912 0.0259321 30.3019C0.0255672 30.1192 0.026553 29.9365 0.0288039 29.7538C0.0316834 29.4746 0.0288294 29.1959 0.0253906 28.9167C0.025746 28.7388 0.0264349 28.5609 0.0274911 28.383C0.0280976 28.2217 0.0287041 28.0604 0.029329 27.8942C0.112225 27.3999 0.217909 27.2843 0.636623 26.9807C0.996708 26.9193 0.996708 26.9193 1.41577 26.9207C1.65441 26.9197 1.65441 26.9197 1.89787 26.9186C2.15894 26.9213 2.15894 26.9213 2.42529 26.9241C2.61079 26.9242 2.79628 26.9241 2.98178 26.9238C3.48504 26.9237 3.98822 26.9266 4.49146 26.9301C5.01749 26.9332 5.54353 26.9335 6.06957 26.9341C7.06556 26.9357 8.06151 26.9398 9.05748 26.9448C10.1914 26.9503 11.3254 26.9531 12.4593 26.9556C14.7918 26.9608 17.1242 26.9696 19.4567 26.9807C19.4539 26.8966 19.4511 26.8125 19.4482 26.7258C19.4369 26.3381 19.4299 25.9505 19.4231 25.5627C19.4186 25.4305 19.4141 25.2982 19.4094 25.162C19.3936 23.9627 19.673 22.9533 20.572 22.0607C21.5349 21.2579 22.5307 20.9538 23.8088 20.9816C23.9078 20.9828 24.0067 20.9839 24.1087 20.985C24.3504 20.9879 24.5921 20.9924 24.8339 20.9972C24.8798 20.3296 24.9246 19.647 24.6994 19.0027C24.3332 18.6232 23.9642 18.3916 23.5001 18.1219C22.0564 17.2809 21.0765 15.5288 20.6529 14.0292C20.471 13.2388 20.5033 12.4445 20.5153 11.6403C20.5165 11.4848 20.5177 11.3293 20.519 11.1692C20.5221 10.7886 20.5265 10.4081 20.5321 10.0275C20.4046 10.0147 20.277 10.0018 20.1456 9.98859C19.7256 9.90289 19.7256 9.90289 19.4567 9.52893C19.0933 7.26216 19.8161 5.19143 21.188 3.32684C22.0735 2.24032 23.1245 1.50434 24.4222 0.88876C24.5071 0.848166 24.592 0.807572 24.6795 0.765748C25.9395 0.196067 27.1773 -0.0126808 28.5727 0.000591398ZM23.4386 4.16924C22.4534 5.29413 21.5954 6.6627 21.742 8.15772C24.4738 8.442 26.9079 8.17631 29.5005 7.37528C29.7733 7.29524 30.0511 7.23036 30.3292 7.16778C31.0446 6.98406 31.497 6.80164 31.8861 6.2056C32.1292 5.78291 32.3341 5.34951 32.5248 4.90457C32.624 4.68242 32.7419 4.46765 32.8607 4.25397C33.0631 3.92511 33.0631 3.92511 33.034 3.54548C31.4273 2.28137 29.5909 2.02899 27.5614 2.14645C25.9997 2.28759 24.4978 3.11174 23.4386 4.16924ZM47.827 4.63718C46.3908 6.09886 46.409 7.66761 46.3902 9.53632C46.3864 9.80605 46.38 10.0758 46.3709 10.3454C46.2409 12.1385 46.2409 12.1385 47.0588 13.6766C47.3716 13.9315 47.3716 13.9315 47.6868 14.1412C47.8422 14.2775 47.9965 14.4149 48.1489 14.5541C49.6126 15.6612 51.5375 16.0913 53.3937 15.9842C55.605 15.7471 57.3927 14.8228 58.8444 13.2686C59.2773 12.7347 59.3069 12.2615 59.3013 11.615C59.3016 11.5161 59.302 11.4173 59.3024 11.3155C59.3027 11.1068 59.302 10.8981 59.3003 10.6894C59.2981 10.3731 59.3002 10.057 59.3028 9.74074C59.336 8.04055 59.336 8.04055 58.5251 6.56057C57.9795 6.18722 57.3032 6.05981 56.6573 5.90078C56.5362 5.86398 56.4151 5.82718 56.2903 5.78927C56.1323 5.49641 56.1289 5.29679 56.1133 4.97025C56.1077 4.85857 56.102 4.74689 56.0962 4.63183C56.0909 4.51501 56.0857 4.39819 56.0802 4.27782C56.0744 4.16004 56.0686 4.04226 56.0626 3.9209C56.0483 3.62957 56.0346 3.33823 56.0214 3.04685C55.4383 3.04061 54.8552 3.03613 54.2721 3.03316C54.0745 3.03192 53.8769 3.03023 53.6793 3.02805C51.4309 3.00387 49.5353 3.15118 47.827 4.63718ZM34.6472 5.53996C34.4287 5.89312 34.4287 5.89312 34.2439 6.28789C34.2883 6.4113 34.3326 6.53471 34.3783 6.66186C34.8492 6.87572 34.8492 6.87572 35.3193 7.03582C35.2588 6.83298 35.1969 6.63048 35.1345 6.42813C35.1002 6.31532 35.0659 6.20252 35.0305 6.0863C34.9348 5.77111 34.9348 5.77111 34.6472 5.53996ZM31.2024 8.93682C30.9629 9.01736 30.7233 9.09771 30.4836 9.17785C30.3678 9.21687 30.252 9.2559 30.1327 9.29611C27.7035 10.1046 25.3777 10.3019 22.8174 10.2769C22.73 12.7306 22.8696 14.483 24.7414 16.3538C26.0971 17.5436 27.6158 17.9458 29.4375 17.9331C31.2865 17.8775 32.7677 17.115 34.0296 15.8786C35.0388 14.741 35.4917 13.4759 35.5882 12.022C35.6062 11.8867 35.6242 11.7514 35.6428 11.612C35.7003 10.9318 35.7138 10.4636 35.3167 9.87319C34.6544 9.17801 34.0263 8.59686 32.9973 8.48299C32.3537 8.54555 31.8054 8.72621 31.2024 8.93682ZM48.4934 17.2576C49.4909 18.2693 50.668 18.8333 52.1524 18.918C54.0151 18.9815 55.5092 18.6539 56.9624 17.5069C57.0068 17.4246 57.0511 17.3423 57.0968 17.2576C57.0138 17.2817 56.9308 17.3058 56.8453 17.3306C56.7315 17.3631 56.6176 17.3955 56.5003 17.429C56.3896 17.4608 56.2788 17.4926 56.1648 17.5254C56.0287 17.5604 55.8927 17.5954 55.7525 17.6315C55.6677 17.6535 55.5829 17.6755 55.4955 17.6982C54.6133 17.9053 53.7526 17.9286 52.8455 17.9276C52.6916 17.9276 52.5377 17.9277 52.3791 17.9278C51.1784 17.9134 50.1611 17.7518 49.0311 17.3822C48.8524 17.3385 48.6734 17.2959 48.4934 17.2576ZM27.1191 19.8753C27.1191 20.4512 27.1191 21.0271 27.1191 21.6205C27.7621 21.5342 27.7621 21.5342 28.1694 21.3011C28.6857 21.0851 29.1205 21.0297 29.6733 21.1219C29.9634 21.2393 30.2291 21.3701 30.4988 21.5236C30.7902 21.6637 30.7902 21.6637 31.2865 21.4958C31.2865 20.9611 31.2865 20.4263 31.2865 19.8753C29.9112 19.8753 28.536 19.8753 27.1191 19.8753ZM22.1537 23.7474C21.2928 24.8843 21.742 24.7849 21.742 26.9807C26.6661 26.9807 31.5903 26.9807 36.6636 26.9807C36.7918 25.2219 36.7918 25.2219 36.0823 23.6676C35.2925 22.9986 34.3522 22.9174 33.3276 22.925C32.73 23.0181 32.4794 23.2761 32.0683 23.6676C31.8242 23.8643 31.8242 23.8643 31.3033 23.9578C30.7067 23.9109 30.2342 23.6317 29.7153 23.3735C29.2775 23.1869 29.0473 23.2117 28.5979 23.3657C28.4237 23.4505 28.2501 23.5362 28.077 23.6228C27.5309 23.8827 27.0524 24.0359 26.447 23.8643C26.2018 23.668 26.2018 23.668 25.9513 23.428C25.4769 22.9994 25.1585 22.9237 24.4978 22.9138C23.5736 22.9654 22.7864 23.0676 22.1537 23.7474ZM2.24977 28.9751C2.24977 29.3042 2.24977 29.6333 2.24977 29.9724C14.671 29.9724 27.0923 29.9724 39.8899 29.9724C39.8899 29.6433 39.8899 29.3142 39.8899 28.9751C27.4687 28.9751 15.0474 28.9751 2.24977 28.9751ZM65.7003 28.9751C65.7003 29.3042 65.7003 29.6333 65.7003 29.9724C66.0552 29.9724 66.4101 29.9724 66.7757 29.9724C66.7757 29.6433 66.7757 29.3142 66.7757 28.9751C66.4208 28.9751 66.0659 28.9751 65.7003 28.9751Z" fill="#B47947"/>
<path d="M10.0598 7.98381C10.4541 8.05965 10.6239 8.23387 10.8532 8.53161C10.9824 8.89088 11.0019 9.11731 10.9961 9.4899C10.9948 9.59065 10.9936 9.6914 10.9924 9.79521C10.9908 9.87186 10.9893 9.94851 10.9877 10.0275C11.2461 10.0236 11.2461 10.0236 11.5097 10.0196C12.1491 10.0105 12.7884 10.0048 13.4278 10.0001C13.7045 9.99758 13.9812 9.99418 14.2579 9.98986C14.6556 9.98381 15.0533 9.98098 15.4511 9.97878C15.5748 9.97621 15.6985 9.97364 15.8259 9.97098C16.6674 9.97071 16.6674 9.97071 17.0911 10.2097C17.4005 10.6657 17.5759 11.1385 17.7558 11.649C17.7959 11.7587 17.836 11.8685 17.8772 11.9816C18.0047 12.3322 18.13 12.6835 18.2552 13.0348C18.3399 13.2682 18.4247 13.5016 18.5096 13.735C19.9916 17.8236 19.9916 17.8236 19.202 19.5086C18.7689 20.2594 18.1431 20.6684 17.3058 20.9971C16.3691 21.2369 15.4913 21.1332 14.6172 20.7478C13.6631 20.1697 13.1382 19.4455 12.8949 18.4159C12.719 16.2436 13.8101 14.1393 14.6172 12.1466C13.4195 12.1466 12.2217 12.1466 10.9877 12.1466C10.9877 16.0546 10.9877 19.9625 10.9877 23.9889C12.5403 23.9889 14.093 23.9889 15.6927 23.9889C16.3508 24.5992 16.3508 24.5992 16.3648 25.2354C16.196 25.6181 16.0729 25.8039 15.6769 25.9987C15.1859 26.1372 14.7222 26.1438 14.214 26.1422C14.0545 26.1432 14.0545 26.1432 13.8918 26.1442C13.5415 26.1459 13.1911 26.1458 12.8408 26.1455C12.5965 26.146 12.3523 26.1465 12.108 26.1471C11.5965 26.148 11.0849 26.148 10.5734 26.1474C9.91868 26.1466 9.26404 26.1487 8.60936 26.1516C8.10504 26.1535 7.60073 26.1536 7.0964 26.1532C6.85506 26.1533 6.61372 26.1539 6.37239 26.1552C6.03456 26.1567 5.69683 26.1559 5.359 26.1544C5.25988 26.1554 5.16076 26.1563 5.05864 26.1573C4.42857 26.1514 3.994 26.0447 3.45963 25.734C3.24928 25.3439 3.2315 24.91 3.3252 24.4875C3.59137 24.2407 3.59137 24.2407 3.86291 23.9889C5.45993 23.9889 7.05695 23.9889 8.70236 23.9889C8.70236 20.0809 8.70236 16.173 8.70236 12.1466C6.90572 12.2083 6.90572 12.2083 5.07278 12.2713C5.18923 12.5764 5.30568 12.8816 5.42565 13.196C5.53841 13.497 5.65024 13.7982 5.76199 14.0996C5.83926 14.3065 5.91748 14.513 5.99671 14.7193C6.57139 16.2179 7.08087 17.6931 6.41234 19.2529C5.95317 20.1321 5.39762 20.6409 4.40063 20.9971C3.45667 21.2229 2.59168 21.1357 1.71205 20.7478C0.864561 20.2343 0.260524 19.5575 0.0386813 18.6248C0.00798941 18.3563 -0.00147009 18.0958 0.000179831 17.8257C0.000724061 17.7249 0.00126829 17.6241 0.00182902 17.5202C0.0553866 16.2204 0.52525 15.0183 0.988312 13.8019C1.14252 13.3962 1.29062 12.989 1.43794 12.5812C1.53387 12.3208 1.63013 12.0606 1.72675 11.8004C1.77103 11.6795 1.8153 11.5587 1.86091 11.4341C2.29979 10.2904 2.29978 10.2904 2.78748 10.0275C3.23781 9.96279 3.67914 9.96954 4.13387 9.97878C4.2644 9.97949 4.39493 9.98019 4.52941 9.98092C4.94585 9.98371 5.36213 9.98997 5.77853 9.99631C6.06104 9.99881 6.34355 10.0011 6.62606 10.0031C7.31822 10.0086 8.01027 10.0172 8.70236 10.0275C8.69612 9.92528 8.68988 9.82308 8.68346 9.71779C8.67618 9.51628 8.67618 9.51628 8.66875 9.31071C8.66252 9.17766 8.65628 9.04461 8.64985 8.90753C8.75931 8.1239 9.29914 7.94835 10.0598 7.98381ZM3.3252 14.5151C3.23501 14.7174 3.14552 14.92 3.05634 15.1228C3.00643 15.2356 2.95653 15.3484 2.90511 15.4646C2.77204 15.7479 2.77204 15.7479 2.78748 16.0109C3.14238 16.0109 3.49727 16.0109 3.86291 16.0109C3.82479 15.8315 3.78532 15.6524 3.74529 15.4734C3.71254 15.3237 3.71254 15.3237 3.67913 15.171C3.60148 14.8575 3.60148 14.8575 3.3252 14.5151ZM16.2304 14.5151C16.1402 14.7174 16.0507 14.92 15.9615 15.1228C15.9116 15.2356 15.8617 15.3484 15.8103 15.4646C15.6772 15.7479 15.6772 15.7479 15.6927 16.0109C16.0476 16.0109 16.4025 16.0109 16.7681 16.0109C16.73 15.8315 16.6905 15.6524 16.6505 15.4734C16.6177 15.3237 16.6177 15.3237 16.5843 15.171C16.5067 14.8575 16.5067 14.8575 16.2304 14.5151ZM2.3842 18.1301C2.57312 18.7622 2.57312 18.7622 3.03114 18.9403C3.45956 19.0373 3.45956 19.0373 3.83771 18.8624C4.18626 18.631 4.18626 18.631 4.2662 18.1301C3.64514 18.1301 3.02408 18.1301 2.3842 18.1301ZM15.2894 18.1301C15.4783 18.7622 15.4783 18.7622 15.9363 18.9403C16.3647 19.0373 16.3647 19.0373 16.7429 18.8624C17.0914 18.631 17.0914 18.631 17.1714 18.1301C16.5503 18.1301 15.9293 18.1301 15.2894 18.1301Z" fill="#B47947"/>
<path d="M47.1408 38.883C47.2764 38.8822 47.412 38.8813 47.5517 38.8804C48.0001 38.8782 48.4484 38.8796 48.8968 38.8813C49.2082 38.881 49.5196 38.8805 49.831 38.8799C50.4837 38.8791 51.1364 38.8802 51.7891 38.8825C52.6264 38.8854 53.4635 38.8837 54.3007 38.8808C54.9438 38.879 55.5868 38.8795 56.2298 38.8808C56.5385 38.8812 56.8473 38.8807 57.156 38.8796C57.5873 38.8783 58.0184 38.8802 58.4497 38.883C58.6416 38.8815 58.6416 38.8815 58.8374 38.88C59.7018 38.8903 59.7018 38.8903 60.1334 39.1853C60.3385 39.4671 60.3962 39.608 60.3905 39.9448C60.3926 40.0682 60.3926 40.0682 60.3947 40.1941C60.2841 40.58 60.1347 40.7034 59.7856 40.942C59.3411 41.0182 58.9006 41.0101 58.4497 41.0065C58.3141 41.0074 58.1785 41.0083 58.0388 41.0092C57.5904 41.0114 57.1421 41.0099 56.6937 41.0083C56.3823 41.0086 56.0709 41.0091 55.7595 41.0097C55.1068 41.0104 54.4541 41.0094 53.8014 41.007C52.9641 41.0042 52.127 41.0058 51.2898 41.0088C50.6467 41.0106 50.0037 41.01 49.3607 41.0088C49.052 41.0084 48.7432 41.0088 48.4345 41.01C48.0032 41.0113 47.5721 41.0093 47.1408 41.0065C47.0129 41.0076 46.8849 41.0086 46.7531 41.0096C45.8887 40.9993 45.8887 40.9993 45.457 40.7043C45.252 40.4225 45.1943 40.2816 45.2 39.9448C45.1979 39.8214 45.1979 39.8214 45.1958 39.6955C45.4559 38.7874 46.3089 38.8765 47.1408 38.883Z" fill="#B47947"/>
<path d="M47.1408 32.8996C47.2764 32.8987 47.412 32.8978 47.5517 32.8969C48.0001 32.8947 48.4484 32.8962 48.8968 32.8979C49.2082 32.8975 49.5196 32.897 49.831 32.8964C50.4837 32.8957 51.1364 32.8968 51.7891 32.8991C52.6264 32.9019 53.4635 32.9003 54.3007 32.8973C54.9438 32.8955 55.5868 32.8961 56.2298 32.8974C56.5385 32.8977 56.8473 32.8973 57.156 32.8961C57.5873 32.8949 58.0184 32.8968 58.4497 32.8996C58.6416 32.8981 58.6416 32.8981 58.8374 32.8965C59.7018 32.9068 59.7018 32.9068 60.1334 33.2018C60.3385 33.4836 60.3962 33.6245 60.3905 33.9613C60.3926 34.0847 60.3926 34.0847 60.3947 34.2106C60.2841 34.5965 60.1347 34.7199 59.7856 34.9586C59.3411 35.0347 58.9006 35.0266 58.4497 35.0231C58.3141 35.024 58.1785 35.0248 58.0388 35.0257C57.5904 35.0279 57.1421 35.0265 56.6937 35.0248C56.3823 35.0251 56.0709 35.0256 55.7595 35.0262C55.1068 35.027 54.4541 35.0259 53.8014 35.0236C52.9641 35.0207 52.127 35.0224 51.2898 35.0254C50.6467 35.0272 50.0037 35.0266 49.3607 35.0253C49.052 35.025 48.7432 35.0254 48.4345 35.0265C48.0032 35.0278 47.5721 35.0259 47.1408 35.0231C47.0129 35.0241 46.8849 35.0251 46.7531 35.0261C45.8887 35.0158 45.8887 35.0158 45.457 34.7208C45.252 34.4391 45.1943 34.2981 45.2 33.9613C45.1979 33.8379 45.1979 33.8379 45.1958 33.712C45.4559 32.8039 46.3089 32.893 47.1408 32.8996Z" fill="#B47947"/>
<path d="M47.1408 26.9162C47.2764 26.9153 47.412 26.9144 47.5517 26.9135C48.0001 26.9113 48.4484 26.9128 48.8968 26.9145C49.2082 26.9141 49.5196 26.9136 49.831 26.913C50.4837 26.9123 51.1364 26.9134 51.7891 26.9157C52.6264 26.9185 53.4635 26.9169 54.3007 26.9139C54.9438 26.9121 55.5868 26.9127 56.2298 26.914C56.5385 26.9143 56.8473 26.9139 57.156 26.9127C57.5873 26.9115 58.0184 26.9134 58.4497 26.9162C58.6416 26.9147 58.6416 26.9147 58.8374 26.9131C59.7018 26.9234 59.7018 26.9234 60.1334 27.2184C60.3385 27.5002 60.3962 27.6411 60.3905 27.9779C60.3926 28.1013 60.3926 28.1013 60.3947 28.2272C60.2841 28.6131 60.1347 28.7366 59.7856 28.9752C59.3411 29.0513 58.9006 29.0432 58.4497 29.0397C58.3141 29.0406 58.1785 29.0414 58.0388 29.0423C57.5904 29.0445 57.1421 29.0431 56.6937 29.0414C56.3823 29.0417 56.0709 29.0422 55.7595 29.0428C55.1068 29.0436 54.4541 29.0425 53.8014 29.0402C52.9641 29.0373 52.127 29.039 51.2898 29.042C50.6467 29.0438 50.0037 29.0432 49.3607 29.0419C49.052 29.0416 48.7432 29.042 48.4345 29.0431C48.0032 29.0444 47.5721 29.0425 47.1408 29.0397C47.0129 29.0407 46.8849 29.0417 46.7531 29.0427C45.8887 29.0324 45.8887 29.0324 45.457 28.7374C45.252 28.4557 45.1943 28.3147 45.2 27.9779C45.1979 27.8545 45.1979 27.8545 45.1958 27.7286C45.4559 26.8205 46.3089 26.9096 47.1408 26.9162Z" fill="#B47947"/>
</svg>
