<svg width="216" height="135" viewBox="0 0 216 135" fill="none" xmlns="http://www.w3.org/2000/svg">
<path d="M12.3094 132.956C10.2634 132.956 8.45944 132.461 6.89744 131.471C5.35744 130.481 4.16944 129.139 3.33344 127.445C2.49744 125.729 2.07944 123.826 2.07944 121.736C2.07944 119.58 2.53044 117.589 3.43244 115.763C4.35644 113.937 5.59944 112.496 7.16144 111.44C8.74544 110.384 10.4614 109.856 12.3094 109.856C14.0694 109.856 15.6094 110.109 16.9294 110.615C18.2714 111.099 19.2614 111.726 19.8994 112.496C20.2734 112.958 20.5044 113.574 20.5924 114.344C20.6804 115.092 20.7244 116.126 20.7244 117.446H20.0644C19.6464 115.312 18.8764 113.739 17.7544 112.727C16.6324 111.693 15.1474 111.176 13.2994 111.176C10.9234 111.176 9.00944 112.012 7.55744 113.684C6.10544 115.356 5.37944 118.04 5.37944 121.736C5.37944 123.474 5.65444 125.091 6.20444 126.587C6.77644 128.083 7.65644 129.304 8.84444 130.25C10.0324 131.174 11.5174 131.636 13.2994 131.636C14.9054 131.636 16.3024 131.251 17.4904 130.481C18.7004 129.711 19.7784 128.556 20.7244 127.016L21.3844 127.511C20.3724 129.491 19.1184 130.899 17.6224 131.735C16.1484 132.549 14.3774 132.956 12.3094 132.956ZM26.0717 114.476C26.0717 113.354 25.9177 112.529 25.6097 112.001C25.3017 111.451 24.6857 111.176 23.7617 111.176H23.1017V110.516H26.0717C26.8857 110.516 27.4907 110.626 27.8867 110.846C28.3047 111.044 28.6017 111.418 28.7777 111.968C28.9537 112.518 29.0417 113.354 29.0417 114.476V130.976H40.7567V132.296H26.0717V114.476ZM46.4309 132.296C45.6169 132.296 45.0009 132.197 44.5829 131.999C44.1869 131.779 43.9009 131.394 43.7249 130.844C43.5489 130.294 43.4609 129.458 43.4609 128.336V110.516H46.4309V128.336C46.4309 129.458 46.5849 130.294 46.8929 130.844C47.2009 131.372 47.8169 131.636 48.7409 131.636H49.4009V132.296H46.4309ZM53.4321 114.476C53.4321 113.354 53.2781 112.529 52.9701 112.001C52.6621 111.451 52.0461 111.176 51.1221 111.176H50.4621V110.516H64.5201C66.3901 110.516 67.3251 111.396 67.3251 113.156V115.631H66.6651C66.6651 113.101 65.2901 111.836 62.5401 111.836H56.4021V120.416H65.3121V121.736H56.4021V130.976H62.1771C63.6951 130.976 64.8831 130.701 65.7411 130.151C66.5991 129.601 67.2811 128.666 67.7871 127.346L68.4471 127.511L67.2921 130.646C66.8961 131.746 66.0711 132.296 64.8171 132.296H53.4321V114.476ZM74.3489 114.971V132.296H73.0289V114.476C73.0289 113.42 72.7979 112.606 72.3359 112.034C71.8959 111.462 71.1369 111.176 70.0589 111.176H69.7289V110.516H71.8739C72.8859 110.516 73.7439 110.681 74.4479 111.011C75.1519 111.341 75.7789 111.836 76.3289 112.496L87.8789 126.851V110.516H89.1989V132.626H88.5389L74.3489 114.971ZM100.438 111.836H97.4677C94.7177 111.836 93.3427 113.101 93.3427 115.631H92.6827V113.156C92.6827 111.396 93.6177 110.516 95.4877 110.516H110.833V111.836H103.408V132.296H100.438V111.836ZM116.179 114.971V132.296H114.859V114.476C114.859 113.42 114.628 112.606 114.166 112.034C113.726 111.462 112.967 111.176 111.889 111.176H111.559V110.516H113.704C114.716 110.516 115.574 110.681 116.278 111.011C116.982 111.341 117.609 111.836 118.159 112.496L129.709 126.851V110.516H131.029V132.626H130.369L116.179 114.971ZM137.318 114.476C137.318 113.354 137.164 112.529 136.856 112.001C136.548 111.451 135.932 111.176 135.008 111.176H134.348V110.516H148.406C150.276 110.516 151.211 111.396 151.211 113.156V115.631H150.551C150.551 113.101 149.176 111.836 146.426 111.836H140.288V120.416H149.198V121.736H140.288V130.976H146.063C147.581 130.976 148.769 130.701 149.627 130.151C150.485 129.601 151.167 128.666 151.673 127.346L152.333 127.511L151.178 130.646C150.782 131.746 149.957 132.296 148.703 132.296H137.318V114.476ZM162.888 121.571L158.268 114.806C157.74 114.036 157.278 113.431 156.882 112.991C156.486 112.529 155.969 112.122 155.331 111.77C154.693 111.418 153.912 111.22 152.988 111.176V110.516H156.948C157.916 110.516 158.73 110.835 159.39 111.473C160.05 112.089 160.776 112.98 161.568 114.146L164.868 119.096L171.468 110.516H173.118L165.693 120.251L170.973 128.006C171.655 129.018 172.381 129.865 173.151 130.547C173.943 131.207 174.812 131.57 175.758 131.636V132.296H172.293C171.347 132.296 170.511 131.966 169.785 131.306C169.059 130.624 168.355 129.744 167.673 128.666L163.713 122.726L156.288 132.296H154.638L162.888 121.571ZM186.977 132.626C184.865 132.626 183.193 132.274 181.961 131.57C180.729 130.844 179.849 129.777 179.321 128.369C178.815 126.961 178.562 125.135 178.562 122.891V114.476C178.562 113.354 178.408 112.529 178.1 112.001C177.792 111.451 177.176 111.176 176.252 111.176H175.592V110.516H178.562C179.376 110.516 179.981 110.626 180.377 110.846C180.795 111.044 181.092 111.418 181.268 111.968C181.444 112.518 181.532 113.354 181.532 114.476V123.881C181.532 126.323 181.983 128.171 182.885 129.425C183.787 130.679 185.283 131.306 187.373 131.306C189.045 131.306 190.365 131.009 191.333 130.415C192.323 129.821 193.027 128.919 193.445 127.709C193.863 126.499 194.072 124.893 194.072 122.891V110.516H195.392V122.891C195.392 125.179 195.15 127.027 194.666 128.435C194.182 129.821 193.324 130.866 192.092 131.57C190.882 132.274 189.177 132.626 186.977 132.626ZM207.257 132.857C206.047 132.857 204.859 132.692 203.693 132.362C202.527 132.032 201.57 131.559 200.822 130.943C200.096 130.327 199.733 129.623 199.733 128.831V125.3H200.327C200.701 127.5 201.427 129.095 202.505 130.085C203.583 131.053 205.068 131.537 206.96 131.537C208.148 131.537 209.16 131.24 209.996 130.646C210.854 130.052 211.283 129.227 211.283 128.171C211.283 127.247 210.997 126.444 210.425 125.762C209.853 125.08 208.929 124.365 207.653 123.617L203.594 121.208C202.186 120.372 201.185 119.525 200.591 118.667C200.019 117.809 199.733 116.764 199.733 115.532C199.733 113.838 200.316 112.485 201.482 111.473C202.67 110.439 204.221 109.922 206.135 109.922C207.257 109.922 208.368 110.087 209.468 110.417C210.568 110.725 211.47 111.187 212.174 111.803C212.9 112.397 213.263 113.09 213.263 113.882V117.413H212.669C212.295 115.213 211.58 113.64 210.524 112.694C209.49 111.726 208.027 111.242 206.135 111.242C205.123 111.242 204.232 111.55 203.462 112.166C202.692 112.782 202.307 113.585 202.307 114.575C202.307 115.477 202.582 116.225 203.132 116.819C203.704 117.413 204.65 118.106 205.97 118.898L210.029 121.307C211.525 122.209 212.581 123.045 213.197 123.815C213.813 124.585 214.121 125.564 214.121 126.752C214.121 128.6 213.505 130.085 212.273 131.207C211.041 132.307 209.369 132.857 207.257 132.857Z" fill="#B47947"/>
<path d="M96.1484 0.00137495C96.5803 0.00498239 96.5803 0.00498239 97.0208 0.00866271C102.131 0.125801 106.554 2.37873 110.169 6.21423C115.52 12.856 115.62 21.3605 115.015 29.6607C114.439 34.885 112.202 39.3021 108.429 42.7374C107.023 43.8898 107.023 43.8898 106.334 43.8898C106.334 45.5157 106.334 47.1415 106.334 48.8167C106.956 48.7927 107.577 48.7688 108.217 48.7442C110.736 48.7125 112.803 49.3338 114.662 51.1884C117.505 54.6082 117.376 58.4322 117.29 62.7276C117.923 62.7276 118.556 62.7276 119.208 62.7276C119.202 62.3917 119.196 62.0557 119.19 61.7095C119.17 60.451 119.158 59.1926 119.148 57.934C119.142 57.3915 119.135 56.849 119.125 56.3066C119.008 49.4534 119.008 49.4534 121.48 46.6521C123.251 44.9673 125.174 44.1318 127.56 44.0597C127.888 44.0484 128.217 44.0372 128.555 44.0257C129.063 44.0122 129.063 44.0122 129.582 43.9985C129.927 43.9873 130.273 43.9761 130.628 43.9646C131.478 43.9373 132.327 43.9125 133.177 43.8898C133.032 43.7261 132.888 43.5624 132.739 43.3938C131.582 42.0555 130.588 40.7757 129.805 39.1623C129.717 38.9958 129.629 38.8294 129.539 38.6579C128.069 35.7099 127.847 32.5854 127.854 29.3087C127.853 28.9191 127.851 28.5295 127.85 28.14C127.847 27.3294 127.848 26.5189 127.851 25.7084C127.854 24.6795 127.848 23.6509 127.84 22.622C127.835 21.8194 127.835 21.0167 127.837 20.2141C127.837 19.6536 127.832 19.0931 127.828 18.5326C127.858 14.4365 129.198 10.3396 131.859 7.28178C135.337 3.86287 139.071 2.35884 143.743 2.34931C144.236 2.34641 144.236 2.34641 144.74 2.34346C145.433 2.34054 146.126 2.33917 146.819 2.33926C147.882 2.33799 148.943 2.32744 150.006 2.31648C150.68 2.31478 151.354 2.31363 152.028 2.31308C152.505 2.30683 152.505 2.30683 152.991 2.30046C153.434 2.30314 153.434 2.30314 153.886 2.30586C154.146 2.30504 154.405 2.30421 154.673 2.30336C155.567 2.4889 155.891 2.86932 156.459 3.60592C156.737 4.39434 156.766 5.11943 156.76 5.95611C156.759 6.17466 156.758 6.39321 156.757 6.61838C156.755 6.84365 156.752 7.06893 156.75 7.30102C156.749 7.53078 156.747 7.76054 156.746 7.99725C156.743 8.56217 156.738 9.12708 156.733 9.69198C156.888 9.73457 157.044 9.77715 157.205 9.82103C159.568 10.5475 160.982 11.8072 162.212 14.0561C163.279 16.2566 163.349 18.5995 163.353 21.0207C163.353 21.2706 163.354 21.5204 163.355 21.7779C163.357 22.3057 163.357 22.8335 163.357 23.3613C163.358 24.1531 163.363 24.9447 163.368 25.7364C163.39 32.7996 162.488 38.5252 157.828 43.8898C158.038 43.8925 158.248 43.8953 158.464 43.898C159.428 43.9137 160.391 43.938 161.355 43.9623C161.685 43.9664 162.014 43.9705 162.354 43.9747C165.088 44.0533 167.414 44.562 169.461 46.5842C171.308 48.7583 171.884 50.9721 171.851 53.8408C171.85 54.2231 171.85 54.2231 171.849 54.6131C171.846 55.4221 171.839 56.2311 171.832 57.0401C171.829 57.5906 171.827 58.1412 171.824 58.6918C171.818 60.0371 171.809 61.3824 171.798 62.7276C171.958 62.7216 172.118 62.7155 172.283 62.7092C173.011 62.6851 173.74 62.6701 174.468 62.6552C174.72 62.6455 174.972 62.6358 175.232 62.6258C177.07 62.5976 177.07 62.5976 177.99 63.1805C178.513 64.1501 178.513 64.8735 178.517 65.988C178.518 66.1895 178.519 66.3909 178.52 66.5985C178.521 67.0233 178.519 67.4482 178.514 67.8729C178.508 68.5219 178.514 69.17 178.521 69.819C178.52 70.2326 178.519 70.6462 178.517 71.0598C178.516 71.4348 178.514 71.8099 178.513 72.1964C178.371 73.1609 178.371 73.1609 177.99 73.7963C176.876 74.6131 175.788 74.4434 174.468 74.3926C174.212 74.3874 173.955 74.3821 173.691 74.3767C173.06 74.3631 172.429 74.3441 171.798 74.3201C171.8 74.6516 171.802 74.9831 171.805 75.3246C171.827 78.4461 171.844 81.5676 171.854 84.6892C171.86 86.2942 171.868 87.899 171.88 89.5039C171.892 91.0523 171.899 92.6006 171.902 94.149C171.904 94.7402 171.907 95.3313 171.913 95.9225C171.921 96.7496 171.922 97.5765 171.922 98.4037C171.926 98.6489 171.93 98.894 171.934 99.1466C171.923 100.807 171.923 100.807 171.276 101.714C170.655 102.177 170.358 102.299 169.606 102.287C169.335 102.292 169.335 102.292 169.059 102.296C168.248 102.068 167.936 101.672 167.415 100.983C167.278 100.105 167.278 100.105 167.278 99.0566C167.276 98.7668 167.276 98.7668 167.274 98.4711C167.27 97.8238 167.275 97.1769 167.279 96.5296C167.278 96.0654 167.276 95.6012 167.274 95.137C167.271 94.1373 167.271 93.1376 167.274 92.1378C167.278 90.5556 167.274 88.9734 167.269 87.3912C167.261 84.3161 167.26 81.2409 167.261 78.1658C167.261 74.2568 167.258 70.3478 167.248 66.4388C167.244 64.8676 167.244 63.2963 167.247 61.725C167.248 60.7449 167.246 59.7648 167.243 58.7846C167.243 58.332 167.243 57.8793 167.246 57.4266C167.357 53.4955 167.357 53.4955 165.686 50.1389C163.792 48.9737 162.023 49.0221 159.886 49.0269C159.542 49.0254 159.198 49.0239 158.844 49.0224C157.903 49.0185 156.962 49.0183 156.022 49.0191C155.235 49.0194 154.448 49.018 153.661 49.0166C151.804 49.0134 149.947 49.0132 148.09 49.015C146.177 49.0167 144.265 49.0132 142.353 49.007C140.708 49.0019 139.063 49.0001 137.418 49.0011C136.437 49.0016 135.456 49.0009 134.475 48.9968C133.38 48.9925 132.285 48.9952 131.19 48.9986C130.868 48.9963 130.545 48.9941 130.213 48.9918C128.45 49.0038 127.101 49.1535 125.508 49.9759C124.318 51.2993 124.104 52.0794 124.1 53.876C124.1 54.0704 124.099 54.2647 124.098 54.4649C124.096 55.1192 124.095 55.7735 124.095 56.4278C124.094 56.8957 124.092 57.3637 124.091 57.8316C124.088 58.841 124.085 59.8504 124.084 60.8598C124.081 62.4564 124.075 64.053 124.069 65.6496C124.052 70.1903 124.037 74.7311 124.028 79.2719C124.023 81.7784 124.015 84.2849 124.004 86.7914C123.998 88.1179 123.994 89.4444 123.993 90.771C123.993 92.0196 123.988 93.2681 123.981 94.5168C123.979 94.9744 123.979 95.432 123.98 95.8896C123.981 96.5159 123.977 97.1419 123.972 97.7682C123.97 98.2932 123.97 98.2932 123.969 98.8288C123.844 100.017 123.557 100.791 123.042 101.852C122.185 102.306 121.232 102.344 120.303 102.142C119.942 101.76 119.58 101.377 119.208 100.983C119.208 95.2446 119.208 89.5063 119.208 83.5941C99.5031 83.5941 79.7984 83.5941 59.4966 83.5941C59.3158 83.9767 59.135 84.3592 58.9487 84.7534C58.3667 85.1156 58.3667 85.1156 57.8531 85.333C57.8556 85.5265 57.858 85.72 57.8605 85.9193C57.8847 87.9314 57.9013 89.9435 57.9133 91.9557C57.9188 92.7068 57.9263 93.458 57.9358 94.2091C57.949 95.2882 57.9553 96.3671 57.9601 97.4463C57.9658 97.7826 57.9714 98.1189 57.9773 98.4655C57.9774 98.9353 57.9774 98.9353 57.9775 99.4147C57.9799 99.6901 57.9824 99.9655 57.9849 100.249C57.8142 101.2 57.4586 101.542 56.7575 102.142C56.2097 102.296 56.2097 102.296 55.6619 102.287C55.3907 102.292 55.3907 102.292 55.1141 102.296C54.3074 102.069 53.9922 101.665 53.4706 100.983C53.3315 100.147 53.3315 100.147 53.3289 99.167C53.3254 98.7995 53.322 98.432 53.3184 98.0533C53.3204 97.6532 53.3226 97.2531 53.3251 96.8531C53.3244 96.4416 53.3233 96.0302 53.322 95.6188C53.3203 94.7573 53.3227 93.896 53.3278 93.0345C53.334 91.9313 53.3305 90.8284 53.3239 89.7251C53.3199 88.8758 53.3212 88.0265 53.324 87.1772C53.3248 86.7705 53.3239 86.3637 53.3213 85.957C53.3185 85.3883 53.3235 84.8195 53.3289 84.2507C53.3297 83.9273 53.3306 83.6039 53.3315 83.2706C53.5034 82.2383 53.7702 81.8865 54.5663 81.2756C54.9278 81.2756 55.2894 81.2756 55.6619 81.2756C55.6901 81.0007 55.7184 80.7257 55.7475 80.4424C55.9358 79.5368 55.9358 79.5368 56.7575 78.9571C57.5892 78.902 58.3955 78.8816 59.2272 78.8874C59.4829 78.8869 59.7386 78.8864 60.0021 78.8859C60.8626 78.885 61.723 78.8882 62.5835 78.8913C63.1989 78.8915 63.8143 78.8914 64.4297 78.8911C66.1036 78.8909 67.7775 78.8943 69.4514 78.8984C71.1995 78.902 72.9476 78.9023 74.6957 78.903C77.6308 78.9046 80.566 78.9082 83.5011 78.9134C86.5245 78.9187 89.5479 78.9228 92.5713 78.9253C92.8508 78.9255 92.8508 78.9255 93.1359 78.9258C94.0706 78.9265 95.0053 78.9272 95.9401 78.928C103.696 78.934 111.452 78.9442 119.208 78.9571C119.208 77.4269 119.208 75.8967 119.208 74.3201C96.0683 74.3201 72.9288 74.3201 49.0882 74.3201C49.0882 83.1188 49.0882 91.9175 49.0882 100.983C47.9925 102.142 47.9925 102.142 47.4447 102.296C47.264 102.293 47.0832 102.29 46.8969 102.287C46.7161 102.29 46.5354 102.293 46.3491 102.296C45.5135 102.061 45.2278 101.715 44.7057 100.983C44.546 100.124 44.5673 99.2769 44.5813 98.4037C44.5811 98.1435 44.581 97.8833 44.5808 97.6152C44.5816 96.7557 44.5901 95.8966 44.5987 95.0372C44.6007 94.4411 44.6023 93.8449 44.6034 93.2488C44.6076 91.6803 44.6183 90.1119 44.6305 88.5434C44.6417 86.9427 44.6467 85.342 44.6522 83.7413C44.6639 80.6009 44.6826 77.4605 44.7057 74.3201C44.5455 74.3262 44.3853 74.3323 44.2202 74.3385C43.4919 74.3627 42.7636 74.3777 42.0351 74.3926C41.783 74.4023 41.5309 74.412 41.2712 74.422C39.4056 74.4506 39.4056 74.4506 38.5132 73.7963C37.9596 72.8736 37.99 72.1462 37.9865 71.0598C37.9854 70.8583 37.9844 70.6568 37.9833 70.4493C37.9825 70.0245 37.9845 69.5996 37.9891 69.1748C37.995 68.5258 37.9892 67.8778 37.9822 67.2288C37.9829 66.8152 37.9843 66.4016 37.9865 65.988C37.9877 65.613 37.9889 65.2379 37.9902 64.8514C38.1591 63.7023 38.3744 63.4336 39.2276 62.7276C39.9613 62.585 39.9613 62.585 40.8151 62.5882C41.3014 62.5858 41.3014 62.5858 41.7974 62.5834C42.3294 62.5897 42.3294 62.5897 42.8721 62.596C43.25 62.5964 43.628 62.5962 44.0059 62.5955C45.0314 62.5952 46.0566 62.602 47.082 62.6101C48.1538 62.6173 49.2256 62.618 50.2974 62.6194C52.3268 62.623 54.3561 62.6325 56.3854 62.6442C58.6959 62.6571 61.0063 62.6635 63.3168 62.6693C68.0693 62.6814 72.8218 62.7018 77.5743 62.7276C77.5685 62.5321 77.5628 62.3366 77.5569 62.1351C77.5339 61.2338 77.5198 60.3326 77.5058 59.431C77.4966 59.1236 77.4874 58.8161 77.478 58.4993C77.4456 55.7111 78.0149 53.3645 79.8468 51.2891C81.8088 49.4227 83.8378 48.7156 86.4419 48.7804C86.6436 48.783 86.8452 48.7857 87.0529 48.7883C87.5454 48.7951 88.038 48.8055 88.5305 48.8167C88.6241 47.2645 88.7154 45.6775 88.2566 44.1796C87.5104 43.2974 86.7586 42.7589 85.8128 42.1317C82.8713 40.1766 80.8747 36.103 80.0116 32.6166C79.641 30.779 79.7068 28.9324 79.7313 27.0626C79.7337 26.7012 79.7362 26.3397 79.7388 25.9673C79.7452 25.0825 79.7542 24.1979 79.7655 23.3132C79.5056 23.2833 79.2458 23.2534 78.978 23.2226C78.1221 23.0233 78.1221 23.0233 77.5743 22.1539C76.8338 16.8839 78.3066 12.0696 81.1019 7.73461C82.9061 5.20854 85.0476 3.49747 87.6916 2.06629C87.8646 1.97191 88.0377 1.87753 88.2159 1.7803C90.7832 0.455838 93.3054 -0.0294818 96.1484 0.00137495ZM85.6876 9.69311C83.6803 12.3084 81.932 15.4902 82.2307 18.966C87.7968 19.6269 92.7565 19.0092 98.0389 17.1469C98.5947 16.9608 99.1609 16.8099 99.7274 16.6645C101.185 16.2373 102.107 15.8132 102.9 14.4275C103.395 13.4447 103.812 12.4371 104.201 11.4027C104.403 10.8862 104.643 10.3869 104.886 9.89009C105.298 9.12554 105.298 9.12554 105.239 8.24291C101.965 5.30398 98.2232 4.71721 94.0879 4.99031C90.9058 5.31845 87.8457 7.23451 85.6876 9.69311ZM135.38 10.781C132.454 14.1793 132.491 17.8265 132.452 22.1711C132.445 22.7982 132.432 23.4252 132.413 24.0521C132.148 28.2209 132.148 28.2209 133.815 31.797C134.452 32.3894 134.452 32.3894 135.094 32.877C135.411 33.194 135.725 33.5133 136.036 33.837C139.018 36.4109 142.94 37.4109 146.722 37.1619C151.228 36.6106 154.871 34.4618 157.828 30.8483C158.71 29.607 158.771 28.507 158.759 27.0037C158.76 26.774 158.761 26.5442 158.762 26.3075C158.762 25.8222 158.761 25.337 158.757 24.8518C158.753 24.1165 158.757 23.3817 158.762 22.6464C158.83 18.6936 158.83 18.6936 157.178 15.2528C156.066 14.3847 154.688 14.0885 153.372 13.7188C153.125 13.6332 152.878 13.5477 152.624 13.4595C152.302 12.7787 152.295 12.3146 152.264 11.5554C152.252 11.2957 152.241 11.0361 152.229 10.7686C152.218 10.497 152.207 10.2254 152.196 9.94556C152.184 9.67172 152.173 9.39788 152.16 9.11575C152.131 8.43843 152.103 7.76108 152.076 7.08366C150.888 7.06914 149.7 7.05873 148.512 7.05183C148.109 7.04894 147.707 7.04501 147.304 7.03994C142.723 6.98373 138.861 7.32621 135.38 10.781ZM108.526 12.8799C108.08 13.701 108.08 13.701 107.704 14.6188C107.794 14.9057 107.885 15.1926 107.978 15.4882C108.937 15.9854 108.937 15.9854 109.895 16.3577C109.772 15.8861 109.646 15.4153 109.518 14.9448C109.449 14.6826 109.379 14.4203 109.307 14.1501C109.112 13.4173 109.112 13.4173 108.526 12.8799ZM101.507 20.7773C101.019 20.9646 100.53 21.1514 100.042 21.3377C99.8061 21.4284 99.5702 21.5191 99.3271 21.6126C94.3775 23.4923 89.6385 23.951 84.4219 23.8928C84.2437 29.5975 84.5282 33.6716 88.3422 38.0211C91.1044 40.7873 94.1988 41.7225 97.9106 41.693C101.678 41.5636 104.696 39.7909 107.267 36.9162C109.323 34.2714 110.246 31.3304 110.443 27.9502C110.48 27.6356 110.516 27.321 110.554 26.9969C110.671 25.4155 110.699 24.327 109.89 22.9543C108.54 21.3381 107.26 19.9869 105.164 19.7222C103.852 19.8676 102.735 20.2877 101.507 20.7773ZM136.738 40.1223C138.77 42.4744 141.169 43.7858 144.193 43.9827C147.989 44.1303 151.033 43.3686 153.994 40.7019C154.084 40.5106 154.175 40.3194 154.268 40.1223C154.099 40.1783 153.929 40.2344 153.755 40.2921C153.523 40.3676 153.291 40.443 153.052 40.5208C152.827 40.5947 152.601 40.6687 152.368 40.7449C152.091 40.8264 151.814 40.9078 151.529 40.9917C151.356 41.0429 151.183 41.094 151.005 41.1467C149.207 41.6282 147.454 41.6824 145.605 41.68C145.292 41.6802 144.978 41.6803 144.655 41.6805C142.209 41.647 140.136 41.2713 137.833 40.4121C137.469 40.3104 137.105 40.2114 136.738 40.1223ZM93.1869 46.2083C93.1869 47.5473 93.1869 48.8862 93.1869 50.2657C94.4969 50.065 94.4969 50.065 95.3267 49.5231C96.3788 49.021 97.2647 48.8922 98.391 49.1065C98.9822 49.3794 99.5234 49.6836 100.073 50.0404C100.667 50.3661 100.667 50.3661 101.678 49.9759C101.678 48.7326 101.678 47.4893 101.678 46.2083C98.8759 46.2083 96.0738 46.2083 93.1869 46.2083ZM83.0695 55.2106C81.3154 57.8539 82.2307 57.6228 82.2307 62.7276C92.2638 62.7276 102.297 62.7276 112.634 62.7276C112.895 58.6386 112.895 58.6386 111.45 55.025C109.84 53.4697 107.924 53.281 105.837 53.2986C104.619 53.5151 104.109 54.1148 103.271 55.025C102.774 55.4823 102.774 55.4823 101.712 55.6997C100.497 55.5908 99.534 54.9415 98.4766 54.3412C97.5845 53.9075 97.1155 53.965 96.1998 54.3231C95.845 54.5203 95.4913 54.7197 95.1384 54.9208C94.0259 55.5251 93.0509 55.8814 91.8173 55.4823C91.3177 55.0261 91.3177 55.0261 90.8073 54.468C89.8408 53.4716 89.1919 53.2955 87.8457 53.2725C85.9627 53.3924 84.3587 53.6302 83.0695 55.2106ZM42.5144 67.3646C42.5144 68.1297 42.5144 68.8949 42.5144 69.6831C67.8233 69.6831 93.1321 69.6831 119.208 69.6831C119.208 68.918 119.208 68.1529 119.208 67.3646C93.899 67.3646 68.5902 67.3646 42.5144 67.3646ZM171.798 67.3646C171.798 68.1297 171.798 68.8949 171.798 69.6831C172.521 69.6831 173.244 69.6831 173.989 69.6831C173.989 68.918 173.989 68.1529 173.989 67.3646C173.266 67.3646 172.543 67.3646 171.798 67.3646Z" fill="#B47947"/>
<path d="M58.428 18.5618C59.2315 18.7381 59.5773 19.1431 60.0446 19.8354C60.3078 20.6706 60.3475 21.1971 60.3357 22.0633C60.3332 22.2975 60.3307 22.5318 60.3282 22.7731C60.325 22.9513 60.3218 23.1295 60.3185 23.3131C60.8451 23.304 60.8451 23.304 61.3823 23.2947C62.685 23.2737 63.9876 23.2604 65.2904 23.2494C65.8542 23.2436 66.418 23.2357 66.9817 23.2257C67.7922 23.2116 68.6025 23.205 69.413 23.1999C69.665 23.1939 69.917 23.1879 70.1766 23.1818C71.8913 23.1811 71.8913 23.1811 72.7547 23.7367C73.385 24.7968 73.7424 25.8962 74.109 27.0829C74.1906 27.3382 74.2722 27.5934 74.3563 27.8564C74.6161 28.6715 74.8713 29.4881 75.1265 30.3048C75.299 30.8476 75.4718 31.3902 75.6449 31.9328C78.6645 41.4384 78.6645 41.4384 77.0556 45.3558C76.1731 47.1013 74.8982 48.0524 73.1921 48.8166C71.2834 49.3739 69.495 49.133 67.714 48.237C65.7699 46.8928 64.7004 45.2092 64.2046 42.8155C63.8462 37.7651 66.0693 32.8727 67.714 28.2399C65.2735 28.2399 62.833 28.2399 60.3185 28.2399C60.3185 37.3255 60.3185 46.4112 60.3185 55.7721C63.4821 55.7721 66.6457 55.7721 69.9052 55.7721C71.2462 57.191 71.2462 57.191 71.2747 58.6702C70.9307 59.56 70.68 59.9918 69.8731 60.4449C68.8726 60.7668 67.9278 60.7822 66.8923 60.7785C66.5674 60.7807 66.5674 60.7807 66.2359 60.783C65.522 60.787 64.8082 60.7868 64.0944 60.7861C63.5967 60.7872 63.099 60.7885 62.6014 60.7899C61.559 60.792 60.5167 60.7919 59.4744 60.7904C58.1405 60.7887 56.8066 60.7936 55.4727 60.8004C54.4451 60.8046 53.4175 60.8049 52.3899 60.804C51.8982 60.8041 51.4065 60.8056 50.9147 60.8086C50.2264 60.8121 49.5382 60.8102 48.8499 60.8068C48.6479 60.809 48.446 60.8112 48.2379 60.8135C46.9541 60.7997 46.0687 60.5518 44.9799 59.8295C44.5513 58.9225 44.515 57.9136 44.706 56.9314C45.2483 56.3575 45.2483 56.3575 45.8016 55.7721C49.0556 55.7721 52.3096 55.7721 55.6622 55.7721C55.6622 46.6865 55.6622 37.6009 55.6622 28.2399C52.0014 28.3834 52.0014 28.3834 48.2667 28.5297C48.504 29.2392 48.7413 29.9486 48.9857 30.6796C49.2155 31.3794 49.4433 32.0798 49.671 32.7803C49.8285 33.2614 49.9878 33.7417 50.1493 34.2212C51.3202 37.7052 52.3583 41.1351 50.9961 44.7615C50.0606 46.8055 48.9286 47.9883 46.8972 48.8166C44.9738 49.3416 43.2114 49.1387 41.4191 48.237C39.6923 47.0431 38.4616 45.4695 38.0095 43.3012C37.947 42.6768 37.9277 42.0713 37.9311 41.4434C37.9322 41.209 37.9333 40.9746 37.9345 40.7331C38.0436 37.7111 39.0009 34.9164 39.9445 32.0882C40.2587 31.1452 40.5604 30.1984 40.8606 29.2503C41.056 28.645 41.2522 28.0399 41.4491 27.435C41.5393 27.154 41.6295 26.873 41.7224 26.5834C42.6166 23.9245 42.6166 23.9245 43.6103 23.3131C44.5279 23.1627 45.4271 23.1784 46.3537 23.1999C46.6196 23.2016 46.8856 23.2032 47.1596 23.2049C48.0081 23.2114 48.8563 23.2259 49.7047 23.2407C50.2803 23.2465 50.856 23.2518 51.4316 23.2565C52.8419 23.2693 54.252 23.2893 55.6622 23.3131C55.6494 23.0755 55.6367 22.8379 55.6236 22.5931C55.6088 22.1246 55.6088 22.1246 55.5937 21.6467C55.581 21.3374 55.5683 21.028 55.5552 20.7093C55.7782 18.8875 56.8781 18.4793 58.428 18.5618ZM44.706 33.7464C44.5222 34.2168 44.3399 34.6879 44.1581 35.1592C44.0565 35.4215 43.9548 35.6837 43.85 35.9539C43.5789 36.6126 43.5789 36.6126 43.6103 37.2241C44.3334 37.2241 45.0566 37.2241 45.8016 37.2241C45.7239 36.807 45.6435 36.3905 45.5619 35.9743C45.4952 35.6263 45.4952 35.6263 45.4271 35.2713C45.2689 34.5425 45.2689 34.5425 44.706 33.7464ZM71.0008 33.7464C70.8171 34.2168 70.6347 34.6879 70.453 35.1592C70.3513 35.4215 70.2496 35.6837 70.1449 35.9539C69.8737 36.6126 69.8737 36.6126 69.9052 37.2241C70.6283 37.2241 71.3514 37.2241 72.0965 37.2241C72.0188 36.807 71.9383 36.3905 71.8568 35.9743C71.7901 35.6263 71.7901 35.6263 71.722 35.2713C71.5638 34.5425 71.5638 34.5425 71.0008 33.7464ZM42.7886 42.1509C43.1736 43.6205 43.1736 43.6205 44.1068 44.0347C44.9797 44.2602 44.9797 44.2602 45.7502 43.8536C46.4604 43.3156 46.4604 43.3156 46.6233 42.1509C45.3579 42.1509 44.0924 42.1509 42.7886 42.1509ZM69.0835 42.1509C69.4684 43.6205 69.4684 43.6205 70.4017 44.0347C71.2746 44.2602 71.2746 44.2602 72.0451 43.8536C72.7553 43.3156 72.7553 43.3156 72.9182 42.1509C71.6527 42.1509 70.3873 42.1509 69.0835 42.1509Z" fill="#B47947"/>
<path d="M133.982 90.3996C134.258 90.3976 134.534 90.3955 134.819 90.3934C135.733 90.3883 136.646 90.3917 137.56 90.3956C138.194 90.3949 138.829 90.3937 139.463 90.3923C140.793 90.3906 142.123 90.3931 143.453 90.3985C145.159 90.4051 146.864 90.4013 148.57 90.3943C149.881 90.3901 151.191 90.3915 152.501 90.3945C153.13 90.3953 153.759 90.3943 154.388 90.3916C155.267 90.3887 156.145 90.3931 157.024 90.3996C157.415 90.3961 157.415 90.3961 157.814 90.3925C159.575 90.4165 159.575 90.4165 160.455 91.1024C160.873 91.7574 160.99 92.0851 160.979 92.8681C160.983 93.155 160.983 93.155 160.987 93.4477C160.762 94.3449 160.457 94.6318 159.746 95.1866C158.84 95.3636 157.943 95.3449 157.024 95.3366C156.748 95.3386 156.472 95.3407 156.187 95.3428C155.273 95.3479 154.36 95.3445 153.446 95.3406C152.812 95.3413 152.177 95.3425 151.543 95.3439C150.213 95.3456 148.883 95.3431 147.553 95.3377C145.847 95.3311 144.141 95.3349 142.435 95.3419C141.125 95.3461 139.815 95.3447 138.505 95.3417C137.876 95.341 137.247 95.3419 136.618 95.3446C135.739 95.3475 134.861 95.3431 133.982 95.3366C133.721 95.339 133.46 95.3413 133.192 95.3437C131.431 95.3197 131.431 95.3197 130.551 94.6338C130.133 93.9788 130.016 93.6512 130.027 92.8681C130.023 92.5812 130.023 92.5812 130.019 92.2885C130.549 90.1772 132.287 90.3843 133.982 90.3996Z" fill="#B47947"/>
<path d="M133.982 76.4886C134.258 76.4866 134.534 76.4845 134.819 76.4824C135.733 76.4773 136.646 76.4807 137.56 76.4846C138.194 76.4839 138.829 76.4827 139.463 76.4813C140.793 76.4796 142.123 76.482 143.453 76.4875C145.159 76.4941 146.864 76.4903 148.57 76.4833C149.881 76.4791 151.191 76.4805 152.501 76.4835C153.13 76.4842 153.759 76.4833 154.388 76.4806C155.267 76.4777 156.145 76.4821 157.024 76.4886C157.415 76.4851 157.415 76.4851 157.814 76.4815C159.575 76.5055 159.575 76.5055 160.455 77.1914C160.873 77.8464 160.99 78.174 160.979 78.9571C160.983 79.244 160.983 79.244 160.987 79.5367C160.762 80.4339 160.457 80.7208 159.746 81.2756C158.84 81.4526 157.943 81.4339 157.024 81.4256C156.748 81.4276 156.472 81.4297 156.187 81.4317C155.273 81.4369 154.36 81.4335 153.446 81.4296C152.812 81.4303 152.177 81.4315 151.543 81.4329C150.213 81.4346 148.883 81.4321 147.553 81.4267C145.847 81.4201 144.141 81.4239 142.435 81.4309C141.125 81.4351 139.815 81.4337 138.505 81.4307C137.876 81.4299 137.247 81.4309 136.618 81.4336C135.739 81.4365 134.861 81.4321 133.982 81.4256C133.721 81.4279 133.46 81.4303 133.192 81.4327C131.431 81.4087 131.431 81.4087 130.551 80.7228C130.133 80.0678 130.016 79.7401 130.027 78.9571C130.023 78.6702 130.023 78.6702 130.019 78.3775C130.549 76.2662 132.287 76.4733 133.982 76.4886Z" fill="#B47947"/>
<path d="M133.982 62.5776C134.258 62.5756 134.534 62.5736 134.819 62.5715C135.733 62.5664 136.646 62.5698 137.56 62.5737C138.194 62.5729 138.829 62.5718 139.463 62.5703C140.793 62.5686 142.123 62.5711 143.453 62.5765C145.159 62.5831 146.864 62.5793 148.57 62.5724C149.881 62.5682 151.191 62.5695 152.501 62.5725C153.13 62.5733 153.759 62.5723 154.388 62.5696C155.267 62.5667 156.145 62.5712 157.024 62.5776C157.415 62.5741 157.415 62.5741 157.814 62.5705C159.575 62.5946 159.575 62.5946 160.455 63.2804C160.873 63.9355 160.99 64.2631 160.979 65.0461C160.983 65.3331 160.983 65.3331 160.987 65.6258C160.762 66.523 160.457 66.8099 159.746 67.3646C158.84 67.5416 157.943 67.5229 157.024 67.5146C156.748 67.5167 156.472 67.5187 156.187 67.5208C155.273 67.5259 154.36 67.5225 153.446 67.5186C152.812 67.5194 152.177 67.5205 151.543 67.522C150.213 67.5237 148.883 67.5212 147.553 67.5158C145.847 67.5092 144.141 67.513 142.435 67.5199C141.125 67.5241 139.815 67.5228 138.505 67.5198C137.876 67.519 137.247 67.5199 136.618 67.5226C135.739 67.5256 134.861 67.5211 133.982 67.5146C133.721 67.517 133.46 67.5193 133.192 67.5218C131.431 67.4977 131.431 67.4977 130.551 66.8119C130.133 66.1568 130.016 65.8292 130.027 65.0461C130.023 64.7592 130.023 64.7592 130.019 64.4665C130.549 62.3552 132.287 62.5624 133.982 62.5776Z" fill="#B47947"/>
</svg>
