<svg width="55" height="49" viewBox="0 0 55 49" fill="none" xmlns="http://www.w3.org/2000/svg">
<path d="M18.4966 6.15848C18.3483 6.17868 18.2068 6.22895 18.0776 6.30301L17.9546 6.38309C17.8369 6.47015 17.7351 6.57665 17.6499 6.69461L17.5698 6.81668C17.4954 6.94228 17.4373 7.07874 17.395 7.22L17.3579 7.36258C17.3261 7.5075 17.31 7.6568 17.3101 7.80594V22.843H11.3462C10.9298 22.843 10.5788 23.0724 10.3501 23.3889L10.27 23.511C10.0965 23.8036 10.0103 24.1538 10.0103 24.5003C10.0103 24.8962 10.1232 25.2964 10.3501 25.6106C10.5788 25.9272 10.9297 26.1575 11.3462 26.1575H18.646C18.798 26.1576 18.945 26.1258 19.0815 26.0686L19.2144 26.0032C19.3424 25.9298 19.455 25.8342 19.5513 25.7249L19.6421 25.6106C19.7273 25.4927 19.7971 25.363 19.8501 25.2259L19.897 25.0862C19.9533 24.8977 19.9819 24.6989 19.9819 24.5003V7.80594L19.9771 7.65652C19.9665 7.50813 19.9392 7.36127 19.897 7.22L19.8501 7.08035C19.7971 6.94305 19.7274 6.81265 19.6421 6.69461L19.5513 6.58133C19.455 6.47196 19.3425 6.37645 19.2144 6.30301L19.0815 6.23758C18.9449 6.18034 18.798 6.14866 18.646 6.14871L18.4966 6.15848Z" fill="#B47947" stroke="#B47947"/>
<path d="M34.5828 26.3865C34.1664 26.3865 33.8154 26.6159 33.5867 26.9324L33.5066 27.0545C33.333 27.3471 33.2468 27.6973 33.2468 28.0437C33.2468 28.3902 33.333 28.7403 33.5066 29.033L33.5867 29.1541C33.8154 29.4707 34.1663 29.701 34.5828 29.701H47.8494C48.2137 29.701 48.5285 29.5253 48.7546 29.2693L48.8455 29.1541C49.0724 28.8398 49.1853 28.4396 49.1853 28.0437C49.1853 27.6477 49.0725 27.2467 48.8455 26.9324L48.7546 26.8181C48.5285 26.5621 48.2138 26.3865 47.8494 26.3865H34.5828Z" fill="#B47947" stroke="#B47947"/>
<path d="M34.5833 19.2982C34.1668 19.2982 33.8149 19.5275 33.5862 19.8441L33.5071 19.9662C33.3334 20.2588 33.2473 20.6089 33.2473 20.9554C33.2473 21.3512 33.3594 21.7516 33.5862 22.0658C33.8149 22.3824 34.1668 22.6126 34.5833 22.6126H42.8625C43.2269 22.6126 43.5417 22.437 43.7678 22.181L43.8586 22.0658C44.0856 21.7515 44.1985 21.3513 44.1985 20.9554C44.1985 20.5594 44.0857 20.1584 43.8586 19.8441L43.7678 19.7298C43.5417 19.4738 43.227 19.2982 42.8625 19.2982H34.5833Z" fill="#B47947" stroke="#B47947"/>
<path d="M18.1904 0.507812C13.4927 0.673077 9.2869 3.38532 6.24414 7.59766C3.10264 11.9468 1.17188 17.927 1.17188 24.5C1.17188 31.073 3.10265 37.0532 6.24414 41.4023C9.2869 45.6147 13.4927 48.3269 18.1904 48.4922L18.6465 48.5C21.5515 48.4993 24.3948 47.507 26.9258 45.6377L27.4277 45.252C30.004 43.196 32.1394 40.2771 33.6504 36.7881H52.8359C53.2522 36.7881 53.6033 36.5586 53.832 36.2422C54.059 35.9279 54.1719 35.5268 54.1719 35.1309C54.1719 34.7348 54.0591 34.3338 53.832 34.0195L53.7412 33.9053C53.5151 33.6492 53.2004 33.4736 52.8359 33.4736H32.8018L32.7598 33.4805C32.7117 33.4887 32.6643 33.5011 32.6182 33.5156C32.427 33.5456 32.2597 33.6358 32.1221 33.7559H32.1211C32.0837 33.7839 32.0477 33.814 32.0137 33.8457L31.917 33.9453L31.9043 33.96L31.8926 33.9756C31.8349 34.0527 31.7854 34.1362 31.7422 34.2227L31.666 34.3486L31.6533 34.3721L31.6436 34.3975C30.3568 37.6915 28.4586 40.4223 26.165 42.3145L25.7314 42.6582C23.5486 44.3235 21.1114 45.1864 18.6465 45.1855L18.2705 45.1797C14.3991 45.0435 10.8556 42.8068 8.23633 39.1807C5.53322 35.4384 3.84375 30.247 3.84375 24.5C3.84375 18.753 5.53322 13.5616 8.23633 9.81934C10.8556 6.19318 14.3991 3.95653 18.2705 3.82031L18.6465 3.81445C21.1092 3.81393 23.5442 4.67545 25.7256 6.33789L26.1582 6.68066C28.4504 8.5695 30.3486 11.2959 31.6367 14.585L31.6475 14.6123L31.6611 14.6387C31.6833 14.6801 31.7087 14.7195 31.7344 14.7588C31.7841 14.8591 31.8411 14.9555 31.9102 15.043L31.918 15.0527L31.9258 15.0615C31.9577 15.0982 31.988 15.1246 32.002 15.1367C32.0053 15.1396 32.009 15.143 32.0107 15.1445C32.0129 15.1464 32.0141 15.147 32.0146 15.1475C32.0139 15.1468 32.0109 15.1447 32.0078 15.1416L32.0088 15.1406C32.1181 15.2522 32.246 15.3469 32.3916 15.4121L32.3926 15.4111C32.4035 15.416 32.4141 15.4192 32.4238 15.4229C32.5442 15.478 32.673 15.5137 32.8076 15.5234L32.8262 15.5254H37.876C38.2923 15.5254 38.6434 15.2959 38.8721 14.9795C39.0991 14.6652 39.2119 14.2642 39.2119 13.8682C39.2119 13.4722 39.0991 13.0711 38.8721 12.7568C38.6434 12.4404 38.2923 12.2109 37.876 12.2109H33.6504C32.1392 8.72238 30.0039 5.80383 27.4277 3.74805L26.9258 3.3623C24.3948 1.4931 21.5515 0.500899 18.6465 0.5L18.1904 0.507812Z" fill="#B47947" stroke="#B47947"/>
</svg>
