<svg width="55" height="49" viewBox="0 0 55 49" fill="none" xmlns="http://www.w3.org/2000/svg">
<path d="M19.4184 24.9428L19.8974 25.0861C19.9538 24.8975 19.982 24.6987 19.9819 24.5L19.4184 24.9428ZM19.4184 24.9428L19.8974 25.0861C19.8411 25.2745 19.7562 25.4537 19.6425 25.611M19.4184 24.9428L19.6425 25.611M19.2147 6.30293C19.0427 6.20436 18.849 6.1487 18.6463 6.14871L19.2147 6.30293ZM19.2147 6.30293C19.3855 6.40085 19.5289 6.53742 19.6425 6.69476M19.2147 6.30293L19.6425 6.69476M19.6425 6.69476C19.7562 6.8521 19.8411 7.03131 19.8974 7.21969M19.6425 6.69476L19.8974 7.21969M19.8974 7.21969C19.9538 7.40828 19.982 7.60712 19.9819 7.8058M19.8974 7.21969L19.9819 7.8058M19.9819 7.8058C19.9819 7.80583 19.9819 7.80587 19.9819 7.8059M19.9819 7.8058V7.8059M19.9819 7.8059V24.4999V7.8059ZM19.6425 25.611C19.5289 25.7684 19.3855 25.9049 19.2147 26.0029M19.6425 25.611L19.2147 26.0029M19.2147 26.0029C19.0427 26.1015 18.8489 26.1571 18.6462 26.1571L19.2147 26.0029ZM18.646 26.1571H11.3461C10.9297 26.1571 10.5785 25.9276 10.3498 25.6109C10.1228 25.2966 10.0104 24.896 10.0104 24.5C10.0104 24.104 10.1228 23.7033 10.3498 23.389C10.5785 23.0724 10.9297 22.8429 11.3461 22.8429H17.3104V7.80589C17.3104 7.80586 17.3104 7.80583 17.3104 7.8058C17.3103 7.60712 17.3385 7.40828 17.3949 7.21969C17.4512 7.03131 17.5361 6.8521 17.6498 6.69476C17.7634 6.53742 17.9068 6.40085 18.0776 6.30293C18.2496 6.20436 18.4433 6.14871 18.646 6.14871L18.646 26.1571Z" fill="#B47947" stroke="#B47947"/>
<path d="M47.8495 29.7007H34.5827C34.1662 29.7007 33.8151 29.4712 33.5864 29.1546C33.3593 28.8402 33.2469 28.4396 33.2469 28.0436C33.2469 27.6476 33.3593 27.2469 33.5864 26.9326C33.8151 26.616 34.1662 26.3865 34.5827 26.3865H47.8495C48.266 26.3865 48.6171 26.616 48.8458 26.9326C49.0729 27.2469 49.1853 27.6476 49.1853 28.0436C49.1853 28.4396 49.0729 28.8402 48.8458 29.1546L48.4405 28.8618L48.8458 29.1546C48.6171 29.4712 48.266 29.7007 47.8495 29.7007Z" fill="#B47947" stroke="#B47947"/>
<path d="M42.8627 22.6124H34.5828C34.1663 22.6124 33.8152 22.3828 33.5865 22.0662C33.3595 21.7519 33.247 21.3513 33.247 20.9553C33.247 20.5593 33.3595 20.1586 33.5865 19.8443C33.8152 19.5277 34.1663 19.2982 34.5828 19.2982H42.8627C43.2792 19.2982 43.6303 19.5277 43.859 19.8443C44.086 20.1586 44.1985 20.5593 44.1985 20.9553C44.1985 21.3513 44.086 21.7519 43.859 22.0662C43.6303 22.3828 43.2792 22.6124 42.8627 22.6124Z" fill="#B47947" stroke="#B47947"/>
<path d="M18.6462 0.5L18.6464 0.5C21.7449 0.500931 24.7732 1.62986 27.4273 3.7477C30.0039 5.8037 32.1416 8.72184 33.6529 12.211H37.8761C38.2926 12.211 38.6437 12.4405 38.8724 12.7572C39.0994 13.0715 39.2119 13.4721 39.2119 13.8681C39.2119 14.2641 39.0994 14.6648 38.8724 14.9791C38.6437 15.2957 38.2926 15.5252 37.8761 15.5252H32.8439H32.8259L32.8081 15.5239C32.6758 15.5144 32.5483 15.4809 32.4296 15.4274C32.4179 15.4232 32.405 15.4181 32.3913 15.412C32.2466 15.3472 32.1187 15.2543 32.0098 15.1436L32.0022 15.1371C31.9884 15.1251 31.9579 15.0984 31.9257 15.0614L31.9179 15.0524L31.9105 15.043C31.8396 14.9533 31.7789 14.8554 31.7284 14.7522C31.7046 14.7153 31.6823 14.6773 31.6615 14.6385L31.6476 14.6124L31.6368 14.5849C30.3486 11.2958 28.4505 8.56993 26.1583 6.6811C23.8686 4.79426 21.2733 3.81358 18.6463 3.81418H18.6462C14.6287 3.81418 10.9397 6.07604 8.23598 9.81925C5.53287 13.5615 3.84344 18.753 3.84344 24.5C3.84344 30.247 5.53287 35.4385 8.23598 39.1808C10.9397 42.924 14.6287 45.1858 18.6462 45.1858H18.6464C21.2758 45.1868 23.8734 44.2044 26.1646 42.3143C28.4583 40.4221 30.3568 37.6915 31.6436 34.3974L31.6534 34.3724L31.6658 34.3485C31.691 34.3 31.7187 34.2528 31.7487 34.2072C31.7902 34.1261 31.8381 34.0485 31.8925 33.9759L31.9041 33.9603L31.917 33.9457C31.9708 33.8842 32.0301 33.8273 32.0945 33.7763C32.2354 33.6454 32.4126 33.549 32.6139 33.5165C32.6614 33.5014 32.71 33.4894 32.7595 33.4809L32.8016 33.4737H32.8443H52.8361C53.2526 33.4737 53.6037 33.7032 53.8324 34.0198L53.4279 34.312L53.8324 34.0198C54.0594 34.3341 54.1719 34.7347 54.1719 35.1308C54.1719 35.5268 54.0594 35.9274 53.8324 36.2417C53.6037 36.5583 53.2526 36.7878 52.8361 36.7878H33.6531C32.142 40.2775 30.0044 43.196 27.4277 45.2522C24.7736 47.3703 21.7451 48.4993 18.6463 48.5H18.6462C13.765 48.5 9.38468 45.7505 6.24384 41.4022C3.10234 37.0531 1.17188 31.073 1.17188 24.5C1.17188 17.927 3.10235 11.9469 6.24385 7.59779C9.38469 3.24954 13.765 0.5 18.6462 0.5Z" fill="#B47947" stroke="#B47947"/>
</svg>
