<svg width="21" height="17" viewBox="0 0 21 17" fill="none" xmlns="http://www.w3.org/2000/svg">
<path d="M18.6719 16.5H5.67188C5.14144 16.5 4.63273 16.2893 4.25766 15.9142C3.88259 15.5391 3.67188 15.0304 3.67188 14.5V5.44L0.901875 2.14C0.761875 1.97 0.671875 1.74 0.671875 1.5C0.671875 1.23478 0.777232 0.98043 0.964768 0.792893C1.1523 0.605357 1.40666 0.5 1.67188 0.5H18.6719C19.2023 0.5 19.711 0.710714 20.0861 1.08579C20.4612 1.46086 20.6719 1.96957 20.6719 2.5V14.5C20.6719 15.0304 20.4612 15.5391 20.0861 15.9142C19.711 16.2893 19.2023 16.5 18.6719 16.5ZM7.17188 3.5C7.03927 3.5 6.91209 3.55268 6.81832 3.64645C6.72455 3.74021 6.67188 3.86739 6.67188 4V5C6.67188 5.13261 6.72455 5.25979 6.81832 5.35355C6.91209 5.44732 7.03927 5.5 7.17188 5.5H17.1719C17.3045 5.5 17.4317 5.44732 17.5254 5.35355C17.6192 5.25979 17.6719 5.13261 17.6719 5V4C17.6719 3.86739 17.6192 3.74021 17.5254 3.64645C17.4317 3.55268 17.3045 3.5 17.1719 3.5H7.17188ZM7.17188 7.5C7.03927 7.5 6.91209 7.55268 6.81832 7.64645C6.72455 7.74021 6.67188 7.86739 6.67188 8V9C6.67188 9.13261 6.72455 9.25979 6.81832 9.35355C6.91209 9.44732 7.03927 9.5 7.17188 9.5H17.1719C17.3045 9.5 17.4317 9.44732 17.5254 9.35355C17.6192 9.25979 17.6719 9.13261 17.6719 9V8C17.6719 7.86739 17.6192 7.74021 17.5254 7.64645C17.4317 7.55268 17.3045 7.5 17.1719 7.5H7.17188ZM7.17188 11.5C7.03927 11.5 6.91209 11.5527 6.81832 11.6464C6.72455 11.7402 6.67188 11.8674 6.67188 12V13C6.67188 13.1326 6.72455 13.2598 6.81832 13.3536C6.91209 13.4473 7.03927 13.5 7.17188 13.5H12.1719C12.3045 13.5 12.4317 13.4473 12.5254 13.3536C12.6192 13.2598 12.6719 13.1326 12.6719 13V12C12.6719 11.8674 12.6192 11.7402 12.5254 11.6464C12.4317 11.5527 12.3045 11.5 12.1719 11.5H7.17188Z" fill="#B47947"/>
</svg>
