<svg width="71" height="16" viewBox="0 0 71 16" fill="none" xmlns="http://www.w3.org/2000/svg">
<path d="M63.396 1.62268C59.946 1.62268 57.1522 4.42268 57.1522 7.87268C57.1522 11.3227 59.946 14.1227 63.396 14.1227C66.8522 14.1227 69.6522 11.3227 69.6522 7.87268C69.6522 4.42268 66.8522 1.62268 63.396 1.62268ZM65.4147 11.2414L63.4022 10.0289L61.3897 11.2414C61.1522 11.3852 60.8585 11.1727 60.921 10.9039L61.4522 8.61643L59.6835 7.08518C59.4772 6.90393 59.5897 6.56018 59.8647 6.53518L62.2022 6.33518L63.1147 4.17893C63.221 3.92268 63.5835 3.92268 63.6897 4.17893L64.6022 6.32893L66.9397 6.52893C67.2147 6.55393 67.3272 6.89768 67.1147 7.07893L65.346 8.61018L65.8772 10.9039C65.9397 11.1727 65.6522 11.3852 65.4147 11.2414Z" fill="#B47947"/>
</svg>
