<svg width="71" height="16" viewBox="0 0 71 16" fill="none" xmlns="http://www.w3.org/2000/svg">
<path d="M63.396 1.62268C59.946 1.62268 57.1522 4.42268 57.1522 7.87268C57.1522 11.3227 59.946 14.1227 63.396 14.1227C66.8522 14.1227 69.6522 11.3227 69.6522 7.87268C69.6522 4.42268 66.8522 1.62268 63.396 1.62268ZM65.4147 11.2414L63.4022 10.0289L61.3897 11.2414C61.1522 11.3852 60.8585 11.1727 60.921 10.9039L61.4522 8.61643L59.6835 7.08518C59.4772 6.90393 59.5897 6.56018 59.8647 6.53518L62.2022 6.33518L63.1147 4.17893C63.221 3.92268 63.5835 3.92268 63.6897 4.17893L64.6022 6.32893L66.9397 6.52893C67.2147 6.55393 67.3272 6.89768 67.1147 7.07893L65.346 8.61018L65.8772 10.9039C65.9397 11.1727 65.6522 11.3852 65.4147 11.2414Z" fill="#B47947"/>
<path d="M49.396 1.62268C45.946 1.62268 43.1522 4.42268 43.1522 7.87268C43.1522 11.3227 45.946 14.1227 49.396 14.1227C52.8522 14.1227 55.6522 11.3227 55.6522 7.87268C55.6522 4.42268 52.8522 1.62268 49.396 1.62268ZM51.4147 11.2414L49.4022 10.0289L47.3897 11.2414C47.1522 11.3852 46.8585 11.1727 46.921 10.9039L47.4522 8.61643L45.6835 7.08518C45.4772 6.90393 45.5897 6.56018 45.8647 6.53518L48.2022 6.33518L49.1147 4.17893C49.221 3.92268 49.5835 3.92268 49.6897 4.17893L50.6022 6.32893L52.9397 6.52893C53.2147 6.55393 53.3272 6.89768 53.1147 7.07893L51.346 8.61018L51.8772 10.9039C51.9397 11.1727 51.6522 11.3852 51.4147 11.2414Z" fill="#B47947"/>
<path d="M35.396 1.62268C31.946 1.62268 29.1522 4.42268 29.1522 7.87268C29.1522 11.3227 31.946 14.1227 35.396 14.1227C38.8522 14.1227 41.6522 11.3227 41.6522 7.87268C41.6522 4.42268 38.8522 1.62268 35.396 1.62268ZM37.4147 11.2414L35.4022 10.0289L33.3897 11.2414C33.1522 11.3852 32.8585 11.1727 32.921 10.9039L33.4522 8.61643L31.6835 7.08518C31.4772 6.90393 31.5897 6.56018 31.8647 6.53518L34.2022 6.33518L35.1147 4.17893C35.221 3.92268 35.5835 3.92268 35.6897 4.17893L36.6022 6.32893L38.9397 6.52893C39.2147 6.55393 39.3272 6.89768 39.1147 7.07893L37.346 8.61018L37.8772 10.9039C37.9397 11.1727 37.6522 11.3852 37.4147 11.2414Z" fill="#B47947"/>
<path d="M21.396 1.62268C17.946 1.62268 15.1522 4.42268 15.1522 7.87268C15.1522 11.3227 17.946 14.1227 21.396 14.1227C24.8522 14.1227 27.6522 11.3227 27.6522 7.87268C27.6522 4.42268 24.8522 1.62268 21.396 1.62268ZM23.4147 11.2414L21.4022 10.0289L19.3897 11.2414C19.1522 11.3852 18.8585 11.1727 18.921 10.9039L19.4522 8.61643L17.6835 7.08518C17.4772 6.90393 17.5897 6.56018 17.8647 6.53518L20.2022 6.33518L21.1147 4.17893C21.221 3.92268 21.5835 3.92268 21.6897 4.17893L22.6022 6.32893L24.9397 6.52893C25.2147 6.55393 25.3272 6.89768 25.1147 7.07893L23.346 8.61018L23.8772 10.9039C23.9397 11.1727 23.6522 11.3852 23.4147 11.2414Z" fill="#B47947"/>
</svg>
