<svg width="70" height="16" viewBox="0 0 70 16" fill="none" xmlns="http://www.w3.org/2000/svg">
<path d="M62.0919 1.62268C58.6419 1.62268 55.8481 4.42268 55.8481 7.87268C55.8481 11.3227 58.6419 14.1227 62.0919 14.1227C65.5481 14.1227 68.3481 11.3227 68.3481 7.87268C68.3481 4.42268 65.5481 1.62268 62.0919 1.62268ZM64.1106 11.2414L62.0981 10.0289L60.0856 11.2414C59.8481 11.3852 59.5544 11.1727 59.6169 10.9039L60.1481 8.61643L58.3794 7.08518C58.1731 6.90393 58.2856 6.56018 58.5606 6.53518L60.8981 6.33518L61.8106 4.17893C61.9169 3.92268 62.2794 3.92268 62.3856 4.17893L63.2981 6.32893L65.6356 6.52893C65.9106 6.55393 66.0231 6.89768 65.8106 7.07893L64.0419 8.61018L64.5731 10.9039C64.6356 11.1727 64.3481 11.3852 64.1106 11.2414Z" fill="#B47947"/>
<path d="M48.5266 1.62268C45.0766 1.62268 42.2828 4.42268 42.2828 7.87268C42.2828 11.3227 45.0766 14.1227 48.5266 14.1227C51.9828 14.1227 54.7828 11.3227 54.7828 7.87268C54.7828 4.42268 51.9828 1.62268 48.5266 1.62268ZM50.5453 11.2414L48.5328 10.0289L46.5203 11.2414C46.2828 11.3852 45.9891 11.1727 46.0516 10.9039L46.5828 8.61643L44.8141 7.08518C44.6078 6.90393 44.7203 6.56018 44.9953 6.53518L47.3328 6.33518L48.2453 4.17893C48.3516 3.92268 48.7141 3.92268 48.8203 4.17893L49.7328 6.32893L52.0703 6.52893C52.3453 6.55393 52.4578 6.89768 52.2453 7.07893L50.4766 8.61018L51.0078 10.9039C51.0703 11.1727 50.7828 11.3852 50.5453 11.2414Z" fill="#B47947"/>
<path d="M34.9613 1.62268C31.5113 1.62268 28.7175 4.42268 28.7175 7.87268C28.7175 11.3227 31.5113 14.1227 34.9613 14.1227C38.4175 14.1227 41.2175 11.3227 41.2175 7.87268C41.2175 4.42268 38.4175 1.62268 34.9613 1.62268ZM36.98 11.2414L34.9675 10.0289L32.955 11.2414C32.7175 11.3852 32.4238 11.1727 32.4863 10.9039L33.0175 8.61643L31.2488 7.08518C31.0425 6.90393 31.155 6.56018 31.43 6.53518L33.7675 6.33518L34.68 4.17893C34.7863 3.92268 35.1488 3.92268 35.255 4.17893L36.1675 6.32893L38.505 6.52893C38.78 6.55393 38.8925 6.89768 38.68 7.07893L36.9113 8.61018L37.4425 10.9039C37.505 11.1727 37.2175 11.3852 36.98 11.2414Z" fill="#B47947"/>
<path d="M21.396 1.62268C17.946 1.62268 15.1522 4.42268 15.1522 7.87268C15.1522 11.3227 17.946 14.1227 21.396 14.1227C24.8522 14.1227 27.6522 11.3227 27.6522 7.87268C27.6522 4.42268 24.8522 1.62268 21.396 1.62268ZM23.4147 11.2414L21.4022 10.0289L19.3897 11.2414C19.1522 11.3852 18.8585 11.1727 18.921 10.9039L19.4522 8.61643L17.6835 7.08518C17.4772 6.90393 17.5897 6.56018 17.8647 6.53518L20.2022 6.33518L21.1147 4.17893C21.221 3.92268 21.5835 3.92268 21.6897 4.17893L22.6022 6.32893L24.9397 6.52893C25.2147 6.55393 25.3272 6.89768 25.1147 7.07893L23.346 8.61018L23.8772 10.9039C23.9397 11.1727 23.6522 11.3852 23.4147 11.2414Z" fill="#B47947"/>
<path d="M7.83066 1.62268C4.38066 1.62268 1.58691 4.42268 1.58691 7.87268C1.58691 11.3227 4.38066 14.1227 7.83066 14.1227C11.2869 14.1227 14.0869 11.3227 14.0869 7.87268C14.0869 4.42268 11.2869 1.62268 7.83066 1.62268ZM9.84941 11.2414L7.83691 10.0289L5.82441 11.2414C5.58691 11.3852 5.29316 11.1727 5.35566 10.9039L5.88691 8.61643L4.11816 7.08518C3.91191 6.90393 4.02441 6.56018 4.29941 6.53518L6.63691 6.33518L7.54941 4.17893C7.65566 3.92268 8.01816 3.92268 8.12441 4.17893L9.03691 6.32893L11.3744 6.52893C11.6494 6.55393 11.7619 6.89768 11.5494 7.07893L9.78066 8.61018L10.3119 10.9039C10.3744 11.1727 10.0869 11.3852 9.84941 11.2414Z" fill="#B47947"/>
</svg>
