<svg width="17" height="17" viewBox="0 0 17 17" fill="none" xmlns="http://www.w3.org/2000/svg">
<mask id="mask0_1923_1462" style="mask-type:alpha" maskUnits="userSpaceOnUse" x="1" y="0" width="16" height="17">
<path fill-rule="evenodd" clip-rule="evenodd" d="M10.245 0.718338C13.6078 0.718338 16.3386 3.42273 16.3386 6.76456C16.3386 10.1064 13.6078 12.8108 10.245 12.8108C8.99121 12.8108 7.82496 12.4348 6.85568 11.79L2.88028 15.7326C2.45135 16.158 1.75705 16.158 1.32813 15.7326C0.897675 15.3057 0.897676 14.6124 1.32813 14.1855L5.27806 10.2681C4.56879 9.27988 4.15129 8.07031 4.15129 6.76456C4.15129 3.42273 6.88212 0.718338 10.245 0.718338ZM14.1408 6.76456C14.1408 4.63478 12.3992 2.90356 10.245 2.90356C8.09074 2.90356 6.34912 4.63478 6.34912 6.76456C6.34912 8.89434 8.09074 10.6256 10.245 10.6256C12.3992 10.6256 14.1408 8.89434 14.1408 6.76456Z" fill="#006FFD"/>
</mask>
<g mask="url(#mask0_1923_1462)">
<rect width="16" height="16" transform="matrix(-1 0 0 1 16.6719 0.38501)" fill="#361900"/>
</g>
</svg>
